<svg viewBox="0 0 1000 1000" width="1000" height="1000" xmlns="http://www.w3.org/2000/svg"><rect fill="#ff6679" height="45.21" rx="22.6" width="45.21" x="477.4" y="431.04"/><path d="M436.24 487.21a54 54 0 01.43 11.92A58.79 58.79 0 01436 507a11.94 11.94 0 01-3.32 6.79 8.81 8.81 0 01-7.17 2.18 11.64 11.64 0 01-7.93-4.44c-.37-.51-1.24 0-.86.51 3.27 4.47 10.31 6.67 15.2 3.58 5.07-3.21 5.41-9.62 5.65-15a62.92 62.92 0 00-.39-13.65c-.11-.63-1.07-.36-1 .27zM422.58 498.22a1 1 0 00-.44.57v.32a1.13 1.13 0 00.06.32 1 1 0 00.51.62.55.55 0 00.26.06.62.62 0 00.4-.18.61.61 0 00.14-.59 2.07 2.07 0 00-.15-.34l-.13-.26a.62.62 0 00-.3-.23.59.59 0 00-.39.05.57.57 0 00-.23.3.54.54 0 00.06.39c.07.14.15.28.21.43l-.05-.12a.19.19 0 010 .07v-.27l.05-.12.07-.1.1-.08.12-.05h.13l.12.05.1.08h-.05l.08.1a.76.76 0 01-.12-.19l.05.12a1.21 1.21 0 01-.05-.18v.13-.12.14a.74.74 0 010-.14l-.05.12.07-.11-.08.1.08-.07-.1.07a.5.5 0 00.23-.3.5.5 0 00-.05-.38.5.5 0 00-.68-.18z"/><path d="M432.77 498.35a1 1 0 00-.43.58 1.55 1.55 0 000 .21v.11a1.13 1.13 0 00.06.32 1 1 0 00.51.62.45.45 0 00.26.05.56.56 0 00.4-.17.62.62 0 00.14-.6 1.61 1.61 0 00-.15-.33l-.13-.26a.47.47 0 00-.3-.23.5.5 0 00-.38.05.5.5 0 00-.23.3.53.53 0 000 .39c.07.14.15.28.21.43l-.05-.12a.14.14 0 010 .07v-.21l.05-.12.08-.1.1-.08.12-.05h.27l.12.05h-.05l.1.08-.05-.05.08.1a.72.72 0 01-.11-.19v.12a.41.41 0 010-.18v.11a.61.61 0 010-.13l-.05.12.07-.11-.08.1a.6.6 0 01.08-.08l-.1.08a.5.5 0 00.23-.3.49.49 0 00-.05-.39.53.53 0 00-.3-.23.51.51 0 00-.38.05zM414.39 500.36c-1.9 0-3.51-1.71-4.42-3.24a4.63 4.63 0 01-.75-2.75 2 2 0 012.2-1.86 3 3 0 012.49 2.65c.12.64 1.08.37 1-.26a4.13 4.13 0 00-2.54-3.2 3 3 0 00-3.64 1.15c-1.43 2.28.36 5.23 2 6.81a5.58 5.58 0 003.65 1.7.5.5 0 000-1z"/><path d="M410.85 494.51a.68.68 0 01.85.1 2.24 2.24 0 01.52.85 5.87 5.87 0 01.41 2.19.13.13 0 00.25 0 6 6 0 00-.55-2.56 1.74 1.74 0 00-.66-.81.9.9 0 00-.95 0c-.13.09 0 .31.13.22z"/><path d="M411.73 495.9h.4l.1.1a1.28 1.28 0 01.15.25.12.12 0 00.17 0 .14.14 0 00.05-.17 1 1 0 00-.53-.54.54.54 0 00-.63.21.13.13 0 00.22.12zM413.89 500.86a156 156 0 01-1.15 19.32l-.51 5.22c-.06.64.94.64 1 0 .64-6.55 1.35-13.11 1.61-19.69.06-1.62.1-3.23.05-4.85a.5.5 0 00-1 0zM429.61 516.11c-.13 3.44-.5 6.91-.35 10.36 0 .64 1 .64 1 0-.15-3.45.22-6.92.35-10.36 0-.65-1-.65-1 0zM427.82 498.32a26.13 26.13 0 01.56 5.21.5.5 0 001 0 27.19 27.19 0 00-.6-5.47c-.13-.63-1.09-.37-1 .26zM420.94 494.59a2.07 2.07 0 01.25-.15l.1-.05h.06a5 5 0 01.51-.16H422.3a3.5 3.5 0 01.56 0 .5.5 0 000-1 3.85 3.85 0 00-2.41.55.51.51 0 00-.18.69.52.52 0 00.69.18zM431.69 495.2a2 2 0 01.25-.14l.1-.05h.07a2.76 2.76 0 01.51-.16 1.17 1.17 0 01.27-.05h.11a3.49 3.49 0 01.56 0 .5.5 0 00.5-.5.51.51 0 00-.5-.5 3.92 3.92 0 00-2.41.56.5.5 0 10.51.86z"/><path d="M419.21 513.86s4.26 7.32 10.36 10.41l.07-3.39.47-4.77c-3.5.73-9.67-.93-10.9-2.25zM425 506.47a6.09 6.09 0 002.56.93.49.49 0 00.35-.15.49.49 0 00.15-.35.49.49 0 00-.15-.36.55.55 0 00-.35-.14h-.22l-.27-.07a3.86 3.86 0 01-.58-.17l-.15-.06c-.12-.05.1 0 0 0l-.28-.14a4.4 4.4 0 01-.52-.3.51.51 0 00-.69.18.51.51 0 00.18.68z"/><path d="M488 525.89s1.43-7.46 4.41-6.44l5.79 2 8.8-3.95a2.58 2.58 0 013.53 2.29c.54 3.35 1.13 10.94-2.07 13.47a33 33 0 01-5.05 2.17c-1.42.28-3 1.77-3.58 2.09s-2.9 1.12-5.76-.75a42.73 42.73 0 01-5-3.87 9.25 9.25 0 01-1.07-7.01z" fill="#fff"/><g fill="#3a3144"><path d="M498.94 538.06a18.91 18.91 0 01-10.59-6.82c-.4-.51-1.1.2-.71.71a19.75 19.75 0 0011 7.07c.63.15.9-.82.27-1z"/><path d="M488.54 531.33a15.47 15.47 0 01.21-6.77c.49-1.89 1.29-4.33 3.64-4.26a9.38 9.38 0 013 .72 8.74 8.74 0 012.78 1.59A1.38 1.38 0 01498 525c-1 .6-2.2.28-3.22 0a.51.51 0 00-.57.73 7.29 7.29 0 011 4.8c-.09.63.87.9 1 .27a8.41 8.41 0 00-1.09-5.57l-.57.73c1.74.41 4.17.68 5.08-1.3s-1.23-3.33-2.7-4.06c-1.69-.85-4.1-1.78-6-1.09s-2.61 2.84-3.09 4.59a16.63 16.63 0 00-.27 7.49c.12.64 1.09.37 1-.26zM507.85 516.33a12.17 12.17 0 01-3.22 1.77l-3.95 1.68a.5.5 0 00-.18.68.51.51 0 00.69.18l4.06-1.72a12.63 12.63 0 003.31-1.89c.49-.42-.22-1.12-.71-.7zM509.37 521.83l-.26.22-.07.05-.13.09c-.19.14-.39.26-.59.38l-.6.3h-.08l-.15.06a2.3 2.3 0 01-.34.12.5.5 0 00.27 1 7.81 7.81 0 002.66-1.51.51.51 0 000-.71.52.52 0 00-.71 0zM509.3 527.11c-.21.13-.43.24-.65.35l-.31.14h-.11l-.16.07a9.72 9.72 0 01-1.4.4.5.5 0 10.27 1 9.51 9.51 0 002.87-1.09.51.51 0 00.17-.69.5.5 0 00-.68-.18zM509.42 531.74c-1.45 1.75-3.69 2.29-5.73 3.06a12.26 12.26 0 00-2.82 1.43 7.09 7.09 0 01-2.83 1.49c-.63.1-.36 1.06.27 1a6.82 6.82 0 002.84-1.43 13.34 13.34 0 013.19-1.63c2.08-.75 4.32-1.4 5.79-3.17.4-.49-.3-1.2-.71-.71z"/></g><path d="M414.15 503.53l-.5 6.47s-9.3-9.59-8.65-18.59c.8-11.12 7.89-13.8 10.38-14.39a14.13 14.13 0 001.81-.58c2.65-1.06 10.34-3.41 16.83 1.53 8.58 6.51 6.22 14 6.22 14h-9.48l-2.17-6-.29 6h-11.9s-1.78 2.64-2.37 1.91-2.15-3.17-4-1.65-1.25 4.75.76 7 2.09 1.25 2.09 1.25 1.97-.97 1.27 3.05z"/><path d="M415 478.52s2.51-14.77-11-15.27c-9.55-.35-12.17 7.33-12.5 15s-6.9 6.53-8.55 11.32a5.58 5.58 0 00.65 5.56 8.14 8.14 0 011.54 6.19 6.71 6.71 0 002.47 6.73c4.44 3.32 10.41-.92 11.46-7.7a6.3 6.3 0 011.65-3.34c.92-1 1.82-3.22 1.2-8.2-1.1-9 7.66-16.55 10.4-10.46"/><g fill="none" stroke="#000" stroke-miterlimit="10"><path d="M429.76 526.47s16.88-5.26 25.66 5.63c5.37 6.66 11.43 31.6 13.05 38.58a.3.3 0 00.59 0c.36-2.4 1.8-9.24 5-14.38 4.73-7.66 11.36-23.56 12-24.68a8.38 8.38 0 011.72-2"/><path d="M499.87 537.52a33.42 33.42 0 00-6.33 14.56c-1.8 9.62-6.69 39.26-17.27 44.64s-20.53-2.61-29.16-23.3M412.73 525.4s-18.25-5.21-26.07 2.68-20.84 48.43-19.66 59.84c1.57 15 32.35 37.45 32.35 37.45s8.15-4.44 9.57-9c0 0 .08-1.52-11.43-21.93a36.52 36.52 0 00-8.72-10.1l9.12-28.51"/><path d="M447.11 554.53a68.21 68.21 0 01.12 17.61 56.68 56.68 0 00-.6 11l.26 4.87a2.54 2.54 0 01-2.45 2.67c-10.27.34-47.73 1.43-49.53-.42 0 0 .66-12-2.65-16.8M445.32 590.84l.1.82a80.9 80.9 0 002.74 12.79c6 20.11 25 85.56 30.11 131.38 4.17 37.84 6.39 58.39 7.36 67.48a6.73 6.73 0 01-5.18 7.28c-17.5 4-71.84 14.08-125.77-1.69a6.76 6.76 0 01-4.61-8.45l24.32-80a206.1 206.1 0 008.7-51.15c.7-16.49 2.54-38.22 6.9-51.44"/></g><path d="M385.78 582.64l3.36 2.5a.5.5 0 00.68-.18.51.51 0 00-.18-.69l-3.36-2.49a.49.49 0 00-.68.18.5.5 0 00.18.68z"/><g stroke="#000" stroke-miterlimit="10"><path d="M500 174.82v43.65" fill="none"/><path d="M495.91 338.69h8.18v55.71h-8.18z"/><path d="M500 359.54v284.72a4.91 4.91 0 004.91 4.91 4.91 4.91 0 004.91-4.91v-10.08" fill="none"/></g><path d="M277.65 365.4a106.37 106.37 0 0130.35 4.18 4.8 4.8 0 002.76 0 112.53 112.53 0 0160.77 0 4.8 4.8 0 002.76 0 112.53 112.53 0 0160.77 0 4.8 4.8 0 002.76 0 112.53 112.53 0 0160.77 0 4.8 4.8 0 002.76 0 112.53 112.53 0 0160.77 0 4.8 4.8 0 002.76 0 112.53 112.53 0 0160.77 0 4.8 4.8 0 002.76 0 112.53 112.53 0 0160.77 0 4.8 4.8 0 002.76 0 106.37 106.37 0 0130.38-4.18h.07a4.73 4.73 0 004.5-6.3c-33.44-93-122.4-159.52-226.92-159.52S306.52 266.09 273.08 359.1a4.73 4.73 0 004.5 6.3z" fill="#e9e9e9"/><g fill="none" stroke="#000" stroke-miterlimit="10"><path d="M277.65 365.4a106.37 106.37 0 0130.35 4.18 4.8 4.8 0 002.76 0 112.53 112.53 0 0160.77 0 4.8 4.8 0 002.76 0 112.53 112.53 0 0160.77 0 4.8 4.8 0 002.76 0 112.53 112.53 0 0160.77 0 4.8 4.8 0 002.76 0 112.53 112.53 0 0160.77 0 4.8 4.8 0 002.76 0 112.53 112.53 0 0160.77 0 4.8 4.8 0 002.76 0 112.53 112.53 0 0160.77 0 4.8 4.8 0 002.76 0 106.37 106.37 0 0130.38-4.18h.07a4.73 4.73 0 004.5-6.3c-33.44-93-122.4-159.52-226.92-159.52S306.52 266.09 273.08 359.1a4.73 4.73 0 004.5 6.3z"/><g stroke-width=".25"><path d="M681.79 368.4C655 270 583.73 199.58 500 199.58S345 270 318.21 368.4"/><path d="M626.08 368.4C607.5 270 558.07 199.58 500 199.58S392.5 270 373.92 368.4"/><path d="M565.48 368.4C555.84 270 530.16 199.58 500 199.58S444.16 270 434.52 368.4M500 199.58V368.4"/></g></g><path d="M584.5 487.48a56.58 56.58 0 00-1.39 12.24 52.3 52.3 0 00.13 8.58 12.09 12.09 0 003.39 7.35 9.8 9.8 0 007.56 2.59 12.66 12.66 0 008.74-4.15c.41-.49-.29-1.2-.71-.71-3.45 4-10.45 5.47-14.64 1.78s-3.64-9.74-3.49-14.7a58.91 58.91 0 011.38-12.71.5.5 0 00-1-.27zM597.09 500.24l-.11-.08.09.08-.08-.1a.35.35 0 01.07.12l-.05-.12v.12-.13a.33.33 0 010 .14v-.13a1.21 1.21 0 01-.05.18l.05-.12a1.18 1.18 0 01-.11.19l.08-.1a.17.17 0 01-.06.06l.1-.07.12-.05h.27l.12.05.1.08.08.1v.39-.08.12l.22-.43a.51.51 0 000-.38.47.47 0 00-.23-.3.53.53 0 00-.39-.05.5.5 0 00-.3.23c-.09.18-.18.36-.26.55a.58.58 0 000 .14.59.59 0 00.06.37.66.66 0 00.22.22.53.53 0 00.37.07.62.62 0 00.26-.09.65.65 0 00.16-.13 1.73 1.73 0 00.19-.28 1.19 1.19 0 00.1-.32 1.46 1.46 0 000-.22 1.66 1.66 0 000-.22v-.1a.75.75 0 00-.1-.2.87.87 0 00-.31-.32.53.53 0 00-.39-.05.5.5 0 00-.3.23.51.51 0 000 .38.53.53 0 00.23.3z"/><path d="M586.9 500.42l-.1-.08.08.08-.07-.1a.63.63 0 01.07.12v-.12.12-.14a.38.38 0 010 .15v-.13a1.21 1.21 0 010 .18v-.12a1.18 1.18 0 01-.11.19l.08-.1a.17.17 0 01-.06.06l.1-.08.12-.05h.26l.12.05.1.08.08.1.05.12v.27-.08l-.05.12.22-.43a.56.56 0 00.05-.38.47.47 0 00-.23-.3.49.49 0 00-.39-.05.5.5 0 00-.3.23 5.52 5.52 0 00-.26.55.58.58 0 000 .14.56.56 0 00.28.59.53.53 0 00.37.07.62.62 0 00.26-.09 1 1 0 00.16-.14 1 1 0 00.18-.27 1 1 0 00.11-.32 1.46 1.46 0 000-.22v-.32a1.24 1.24 0 00-.1-.2.82.82 0 00-.32-.32.5.5 0 00-.38-.05.5.5 0 00-.3.23.5.5 0 00-.05.38.53.53 0 00.23.3zM607.84 503.66a8.44 8.44 0 004.75-5.07 3.75 3.75 0 00-.51-3.66 3.06 3.06 0 00-3.32-.77 4.17 4.17 0 00-2.6 3 .5.5 0 001 .27 3.08 3.08 0 012.4-2.4 2 2 0 012.33 2.12 5.82 5.82 0 01-1.43 3.34 7.06 7.06 0 01-2.84 2.24c-.6.22-.34 1.19.26 1z"/><path d="M610.38 496.82a.91.91 0 00-.94-.1 1.69 1.69 0 00-.76.8A6 6 0 00608 500c0 .16.23.16.25 0a5.75 5.75 0 01.56-2.11 2.47 2.47 0 01.57-.82.72.72 0 01.87-.07c.12.11.3-.07.18-.18z"/><path d="M609.45 498.22a.54.54 0 00-.61-.24.92.92 0 00-.56.5c-.08.14.13.27.21.13a.72.72 0 01.39-.38h.25a.12.12 0 00.17 0 .12.12 0 000-.17zM607.21 503.18a188.7 188.7 0 00.71 19.46c.13 1.74.27 3.47.44 5.2.07.64 1.07.64 1 0-.64-6.59-1.05-13.22-1.16-19.84v-4.82a.5.5 0 00-1 0zM588.57 516.89c.14 3.64.46 7.31.31 11 0 .65 1 .64 1 0 .15-3.64-.17-7.31-.31-11 0-.64-1-.65-1 0zM590.76 499.62a27.26 27.26 0 00-.57 5.48.5.5 0 001 0 26.12 26.12 0 01.53-5.22c.13-.62-.83-.89-1-.26zM599.15 496.12a3.84 3.84 0 00-2.41-.54.5.5 0 00-.35.14.53.53 0 00-.15.36c0 .24.22.53.5.5a3.5 3.5 0 01.56 0h.43a2.76 2.76 0 01.51.16h.16l.25.15a.5.5 0 00.51-.87zM588.4 496.78a3.84 3.84 0 00-2.41-.54.5.5 0 00-.35.14.49.49 0 00-.15.36c0 .24.22.53.5.5a3.5 3.5 0 01.56 0h.43a3.8 3.8 0 01.51.15h.16l.25.15a.52.52 0 00.69-.18.51.51 0 00-.18-.69z"/><path d="M601.57 513.91s-6.06 9.45-12.16 12.55l-.26-4.69-.08-4.88 2.83.58c3.5.74 8.44-2.23 9.67-3.56zM594.73 505.88l-.06.05c.05 0 .06 0 0 0l-.12.09-.25.17a5.29 5.29 0 01-.52.29l-.14.07s-.17.08 0 0l-.28.11c-.19.06-.39.12-.58.16a.51.51 0 00-.35.62.52.52 0 00.61.35 6.09 6.09 0 002.44-1.21.51.51 0 000-.71.52.52 0 00-.71 0zM511.62 570.78a16.49 16.49 0 00-1.64-7.55c-1.3-2.72-3.72-4.86-5.9-6.87-.47-.43-1.18.27-.71.71 2.08 1.91 4.39 3.94 5.67 6.51a15.36 15.36 0 011.58 7.2c0 .65 1 .65 1 0zM489 557.82a64.66 64.66 0 006.39 2.79 25.9 25.9 0 006.69 1.7c.64.06.64-.94 0-1a25.08 25.08 0 01-6.42-1.66 61.15 61.15 0 01-6.16-2.7c-.57-.29-1.08.58-.5.87zM491.1 563.19a13.82 13.82 0 003.2 1.46.49.49 0 00.61-.35.5.5 0 00-.34-.61c-.27-.08-.53-.17-.8-.27s-.43-.17-.7-.3a13 13 0 01-1.47-.79.49.49 0 00-.68.18.5.5 0 00.18.68zM492 567.86a23.52 23.52 0 003.76 1.53.5.5 0 10.27-1 23.5 23.5 0 01-3.53-1.39.51.51 0 00-.68.18.49.49 0 00.18.68zM493 572.31a10 10 0 011.8 1.82 8.24 8.24 0 001.89 1.64 19.7 19.7 0 002.84 1.4 58.57 58.57 0 006.42 2.33.5.5 0 00.27-1 54.44 54.44 0 01-6.3-2.28 17.74 17.74 0 01-2.92-1.47c-1.38-.88-2.14-2.42-3.5-3.33-.54-.36-1 .51-.5.86z"/><path d="M504.12 566.48c-.28-.88-.78-1.68-1-2.57a10.5 10.5 0 01-.27-2.74.5.5 0 00-1 0 12.94 12.94 0 00.28 2.91c.25.93.77 1.75 1.06 2.67.19.61 1.16.35 1-.27zM395.19 627.27a14.47 14.47 0 005.29-2 41.92 41.92 0 004.81-3.32 17 17 0 003.85-4.18 19.21 19.21 0 002.26-5.34.5.5 0 00-1-.26 18.27 18.27 0 01-2.11 5 16.23 16.23 0 01-3.74 4.06 41.15 41.15 0 01-4.52 3.11 13.9 13.9 0 01-5.15 2c-.63.09-.36 1.06.27 1zM403.5 524.29c3.17 4.92 7.19 9.61 12.75 11.86 5.21 2.11 11.51 1.72 15.57-2.5a10.63 10.63 0 003.1-7.81c0-.64-1-.64-1 0 .26 5-3.86 9.31-8.61 10.32-5.56 1.18-11.16-1.43-15.15-5.18a38.24 38.24 0 01-5.8-7.19c-.34-.54-1.21 0-.86.5z"/><path d="M477 811.79c-.18 0 1.39 59.09 2.09 69.59a2.12 2.12 0 00.95 1.64l6.93 4.64a2.15 2.15 0 01-1.19 3.94h-24.7a2.15 2.15 0 01-2.15-2c-.24-5.37-1.42-21.71-7.1-54-2.14-12.14-3.53-19.65-3.53-19.65M398.85 816.74s-10.41 51.36-12.33 62.94a2.13 2.13 0 00.64 1.91l6.63 6.3a2.15 2.15 0 01-1.48 3.71H365.4a2.16 2.16 0 01-2.15-2.33c.45-5.31 1.5-19 1.75-33.71.33-18.9 4.36-43 4.36-43" fill="none" stroke="#000" stroke-miterlimit="10"/><path d="M364.54 882.34c3.75-1.53 6.3 3.21 9.31 4.47a19.15 19.15 0 005.54.94c2.06.2 4.14.31 6.21.35 2.4 0 4.8 0 7.2-.21.16 0 .16-.26 0-.25a80.11 80.11 0 01-12.68-.07c-1.06-.09-2.11-.2-3.16-.33a10.84 10.84 0 01-3.18-.74c-1.64-.75-2.84-2.16-4.25-3.23s-3.3-1.89-5.06-1.17c-.15.06-.08.3.07.24zM458.79 885.06a4.74 4.74 0 013.3.51 7.58 7.58 0 012 2.06 2.59 2.59 0 002.2 1c1.25 0 2.5-.11 3.74-.16l15.46-.68a.13.13 0 000-.25l-15.7.69c-1.23 0-2.48.19-3.7.15-1.37-.06-1.81-1-2.59-2a5 5 0 00-4.78-1.61c-.16 0-.09.27.06.24zM385.17 642.25a5.28 5.28 0 116.46 8.15.13.13 0 00.06.24c2-.15 3.44 1.79 3.57 3.63.16 2.24-1.29 4.28-2.59 6-.07.08 0 .22.08.21a2.12 2.12 0 011.87 2.48 6.89 6.89 0 01-1.71 3.2 6.47 6.47 0 00-1.42 2.81 4 4 0 00.63 2.61 14.83 14.83 0 011.6 2.82 5.6 5.6 0 01.1 3A7 7 0 01390 682a10.23 10.23 0 01-7.78.05c-.15-.05-.22.19-.07.24 4.24 1.55 9.76.71 11.6-3.92a6.14 6.14 0 00-.69-5.86c-.74-1.15-1.61-2.33-1.29-3.77s1.34-2.42 2.11-3.54a4 4 0 00.9-3.34 2.16 2.16 0 00-2-1.71l.09.22c1.41-1.82 3-4.07 2.63-6.51-.29-1.84-1.78-3.66-3.78-3.51l.06.23a5.82 5.82 0 002.63-6.38 5.32 5.32 0 00-5.58-3.88 5.5 5.5 0 00-3.81 1.72c-.1.11.07.29.18.17zM413.45 698.16c-1.72-2-3.52-4-4.33-6.59a7 7 0 011-6.47 4.62 4.62 0 011.16-1 10.18 10.18 0 001.32-.78 1.71 1.71 0 00.46-2.05 7.28 7.28 0 00-2.09-2.4 6 6 0 01-2.05-3.1 3.42 3.42 0 011.05-3.34c.91-.76 2.08-.49 3.1-.95 2.1-1 .22-3.26-.53-4.44a4 4 0 011.22-5.5c.86-.55 2-.33 2.8-.92a2.34 2.34 0 00.68-2.26 12 12 0 01-.17-3.28 7.33 7.33 0 011.41-3.17 7.12 7.12 0 016.17-2.78 8.28 8.28 0 016.09 3.36 9.33 9.33 0 011.52 7c-.45 2.43-2.23 4.54-2.12 7.07a3.6 3.6 0 001.11 2.57c.42.38.89.67 1.29 1.07a5.87 5.87 0 011.08 1.54 7.35 7.35 0 01-.3 6.79 12 12 0 01-5.25 4.54 4 4 0 00-2 1.76c-.43 1.06.2 2.17.56 3.16a6.33 6.33 0 01.48 3.66 3.78 3.78 0 01-2.24 2.22 6.11 6.11 0 00-2.13 1.43c-.68.87-.37 1.84-.41 2.85a3.91 3.91 0 01-5.1 3.5 4 4 0 01-2.48-2.51c-.05-.15-.29-.08-.24.07a4.12 4.12 0 008.06-1.46 3.65 3.65 0 01.21-2.07 3.15 3.15 0 011.2-1.06 12.61 12.61 0 002.5-1.49c1.77-1.63.76-4.24.05-6.12a2.59 2.59 0 01-.1-2.33 3.57 3.57 0 011.42-1.22 24.3 24.3 0 003-1.78 9.26 9.26 0 003.59-5.64 7.1 7.1 0 00-1.63-5.89c-.4-.43-.89-.74-1.33-1.13a3.18 3.18 0 01-1.05-1.85 7.38 7.38 0 01.88-4.3 14.16 14.16 0 001.22-3.69 10.33 10.33 0 00-.09-3.33 8.77 8.77 0 00-3.68-5.62 8.33 8.33 0 00-6.33-1.23 7.38 7.38 0 00-4.95 3.93 7 7 0 00-.77 2.95c0 1.14.42 2.28.26 3.42-.23 1.59-1.86 1.25-3 1.76a4.17 4.17 0 00-1.87 1.82 4.29 4.29 0 00-.49 2.58 7 7 0 001.37 2.73 4.47 4.47 0 01.72 1.49 1.41 1.41 0 01-1.18 1.65c-1 .28-2.07.19-2.92 1-1.62 1.53-1.2 4 .05 5.57.76 1 1.82 1.64 2.59 2.6a2.16 2.16 0 01.64 1.83c-.19.75-1 1-1.56 1.39a6 6 0 00-2.84 5 10.49 10.49 0 002.36 6.64c.74 1 1.57 2 2.4 3 .11.12.29-.06.18-.18zM400.13 627a8.52 8.52 0 0010 1.45 8.36 8.36 0 003.49-4 8.67 8.67 0 00.67-2.54 13.29 13.29 0 00-.19-2.82c-.11-.93.61-1.14 1.25-1.56a4.51 4.51 0 00.93-.81 6.1 6.1 0 001.13-2 10.14 10.14 0 00.24-5.1c-.3-1.49-1.05-3.27-2.54-3.92a2.71 2.71 0 00-1-.23c-.66 0-1.39.29-2 0a3.3 3.3 0 01-1.05-1.39l-1-1.8c-.94-1.67-2-4-4.19-4.34a3.23 3.23 0 00-3.55 3c0 .16.24.16.25 0a2.92 2.92 0 014.27-2.41c1.67.92 2.53 3 3.43 4.61a7.36 7.36 0 001.56 2.41c.68.52 1.45.21 2.22.21 1.84 0 2.86 1.91 3.27 3.47a9.86 9.86 0 010 5.06 6 6 0 01-1.14 2.25 4.52 4.52 0 01-.92.83 11.45 11.45 0 00-1 .61c-.61.54-.33 1.3-.22 2a7.7 7.7 0 01-.06 2.75 8.46 8.46 0 01-2.53 4.51 8.14 8.14 0 01-11.06-.39c-.11-.12-.29.06-.17.18zM387.89 627.32a4 4 0 003.15.9c.16 0 .09-.27-.06-.24a3.8 3.8 0 01-2.92-.84c-.12-.1-.3.07-.17.18zM423.71 593.06c.85 1.89 1.94 4.12 4.19 4.58a3.18 3.18 0 001.23 0c.76-.14 1.61-.52 2.25.14 1 1 .32 2.59.51 3.82a4.25 4.25 0 003.48 3.34 5.52 5.52 0 005.06-2.14c.37-.44.65-1.15 1.18-1.41.7-.34 1.23.46 1.78.76a3 3 0 003-.08c.14-.08 0-.3-.12-.22a2.88 2.88 0 01-3.42-.43 1.16 1.16 0 00-1.61 0 5.41 5.41 0 00-.74 1 6.38 6.38 0 01-1.16 1.22 5.22 5.22 0 01-3.21 1.19 4.23 4.23 0 01-2.89-1.19 3.74 3.74 0 01-1.09-3.06 4.14 4.14 0 00-.39-2.69 1.72 1.72 0 00-1.93-.59 4 4 0 01-2.12.08 4.23 4.23 0 01-1.7-1 10.45 10.45 0 01-2.06-3.38c-.06-.15-.28 0-.21.13zM450.45 615.14c-2.44 4.48-9.28 2.83-12 7a7.78 7.78 0 00-.83 3.11c-.11.59-.3 1.27-.94 1.48s-1.52-.15-2.24-.07a5.1 5.1 0 00-4.24 4.16 5.82 5.82 0 002.69 5.62 7 7 0 003.17 1.2c1.65.21 3.34-.1 5 .23a3.94 3.94 0 013.18 2.37c.39 1.25.08 2.54.8 3.71a4.3 4.3 0 005.27 1.79 4.38 4.38 0 002.13-5.59 4.52 4.52 0 01-.49-1.45 1 1 0 011.11-1.07 13.35 13.35 0 011.77.3c.8.1 2-.13 2-1.13a.13.13 0 00-.25 0c0 1.45-2.24.72-3 .62s-1.74.11-1.86 1.06a2.63 2.63 0 00.27 1.23 5.26 5.26 0 01.57 1.92 4.32 4.32 0 01-1.33 3.21 4 4 0 01-6-1.15c-.66-1.2-.27-2.59-.8-3.81a3.74 3.74 0 00-2.05-1.88c-2.58-1.11-5.51 0-8.11-1.12-2.22-1-4.12-3.29-3.76-5.83a5.12 5.12 0 011.81-3.18 4.39 4.39 0 011.58-.84 4.93 4.93 0 012.06 0c2.44.29 1.83-2.72 2.48-4.18 1.1-2.43 4.07-3.26 6.4-3.93s4.75-1.48 5.94-3.68c.08-.14-.14-.26-.21-.12zM461.25 659c-1.26 1.37-3.35 1-5 1.31a4.36 4.36 0 00-3.52 2.93c-.56 1.41-1.31 3.68-.38 5.09.42.65 1.54.94 1.76 1.69s-.51 1.2-.85 1.64a13.52 13.52 0 00-.92 1.32c-1.9 3.06-2.46 7.43.73 9.89a4.56 4.56 0 002.19.93c1.14.15 2.29-.24 3.43-.05a2.53 2.53 0 011.33.6 2.34 2.34 0 01.52 2 6.27 6.27 0 00.33 2.68c.56 1.51 2 2.92 3.7 2.67 1.52-.22 2.95-1.58 2.58-3.19l-.18.14 2.61 1.49c.14.08.26-.14.12-.22l-2.6-1.49a.14.14 0 00-.19.15c.42 1.82-1.75 3.26-3.4 2.82-1.8-.49-2.72-2.54-2.75-4.27a5 5 0 00-.23-2.51 2.37 2.37 0 00-1.6-1 10.78 10.78 0 00-2.78 0 4.35 4.35 0 01-2.67-.72 5.9 5.9 0 01-2.48-4.59 9.62 9.62 0 012-5.79c.29-.42.61-.82.94-1.22a2 2 0 00.46-.82c.12-.58-.28-1-.71-1.3a6 6 0 01-.9-.69 2.32 2.32 0 01-.56-1.58 8.49 8.49 0 01.47-2.68 5.67 5.67 0 011.5-2.72 4.72 4.72 0 012.79-1c1.55-.15 3.34 0 4.48-1.3.11-.11-.07-.29-.17-.17zM444.25 724.83c-2.58-4.53-5.52-10.11-2.64-15.21a7.1 7.1 0 012.29-2.49 8.09 8.09 0 013.46-1 5.57 5.57 0 002.94-1c1-.85 1.36-2.16 2.72-2.6 2.53-.84 5.19 1 6.6 3a9.28 9.28 0 011.43 7.58c-.56 2.49-1.76 5-1.37 7.6a10.72 10.72 0 001.39 3.48 21.85 21.85 0 011.69 4 22.37 22.37 0 011 8.09 20.78 20.78 0 01-.7 4.22 10.87 10.87 0 01-1.47 3.51 3.77 3.77 0 01-3.54 1.63 4.16 4.16 0 00-3 .69c-1.86 1.55-1.6 4.23-1.5 6.39a8.64 8.64 0 01-.84 4.56 12.26 12.26 0 01-2.47 3.26 5.53 5.53 0 01-6.84.52 8.06 8.06 0 01-3.64-6.63 14.33 14.33 0 01.37-4.13c.25-1.13.83-2.32.24-3.44s-1.58-1.74-2.18-2.76a6.1 6.1 0 01-.9-3.35 3.49 3.49 0 011.76-2.84c.7-.46 1.53-1 1.64-1.88.2-1.74-2.06-2.61-2.44-4.16s1.47-2.59 2.73-3a5.45 5.45 0 002.74-1.6 2.1 2.1 0 00.22-2.41c-.09-.13-.3 0-.22.13a1.8 1.8 0 01-.12 2 4.1 4.1 0 01-2.1 1.42 6.19 6.19 0 00-3.08 1.78c-1.4 1.88.71 3.24 1.65 4.65a1.69 1.69 0 01.33 1.42c-.18.66-.81 1-1.34 1.39a4 4 0 00-1.86 2.19c-.59 2 .37 4.22 1.69 5.67a8 8 0 011.26 1.52c.5.93.06 1.9-.17 2.84a16.12 16.12 0 00-.5 4 8.91 8.91 0 002.72 6.7 6.49 6.49 0 005.91 1.58c2.33-.67 4.17-3.13 5.09-5.26a9.2 9.2 0 00.6-4.22 11.09 11.09 0 01.23-4.22 3.32 3.32 0 013.16-2.52c1.25 0 2.45.18 3.53-.58 1.95-1.36 2.6-4.27 3-6.46a22.88 22.88 0 000-8.25 22 22 0 00-1.19-4c-.51-1.3-1.23-2.48-1.83-3.74a7.42 7.42 0 01-.7-4.9c.25-1.39.72-2.73 1.08-4.1a10.07 10.07 0 00-.5-7.38 8 8 0 00-5.35-4.38 4.23 4.23 0 00-2.92.37c-1.15.65-1.51 2.07-2.68 2.71s-2.54.56-3.8.83a6.34 6.34 0 00-2.74 1.34 8.9 8.9 0 00-2.87 5.72 14.77 14.77 0 001.71 7.88c.63 1.35 1.37 2.64 2.1 3.93.08.14.3 0 .22-.12zM390.45 717.46a12.12 12.12 0 00-7.08 6.48 12.48 12.48 0 00-1.14 4.69 11.13 11.13 0 00.16 2.38c.2 1.11.68 2.17.79 3.3.18 2-1.15 3.44-2.27 4.88a6.86 6.86 0 00-1.75 5.06c.46 4.37 4.37 7.25 5.62 11.33s.58 8.3 2.49 12.07a7.28 7.28 0 003.5 3.51 6.53 6.53 0 004.57.11 9 9 0 005.94-7.76 16.41 16.41 0 00-.49-6.08c-.3-1.15-.85-2.4-.19-3.52a5.17 5.17 0 012.12-1.69 10.73 10.73 0 003.93-3.16 9.34 9.34 0 001.72-4.8 9 9 0 00-4.94-8.42A8.9 8.9 0 00401 735l.07.19c.78-1.81 1.63-3.61 2.29-5.47a9.28 9.28 0 00.55-5.28c-.6-2.36-3.28-4.54-5.73-3.38h.17c-.66-1.39.08-2.91-.12-4.36a2.69 2.69 0 00-1.81-2.2c-2.71-1-4.88 1.31-6.44 3.19-.1.12.08.3.18.18 1.53-1.84 3.8-4.28 6.44-3s.58 4.32 1.54 6.33a.12.12 0 00.17 0 3.44 3.44 0 013.64.62 5 5 0 011.88 3.64 11 11 0 01-.92 4.66c-.62 1.65-1.36 3.25-2.05 4.86 0 .07 0 .17.07.18a8.7 8.7 0 012.54 16.25c-1.2.66-2.77 1.27-3.31 2.65a3.86 3.86 0 00.12 2.51 23 23 0 01.66 3c.54 3.84-.32 8.17-3.75 10.44a7.3 7.3 0 01-4.72 1.28 6.14 6.14 0 01-4.44-2.83c-2.2-3.28-1.94-7.35-2.6-11.07a14.65 14.65 0 00-2.21-5.55 33.78 33.78 0 01-3.21-5.26 6.56 6.56 0 01.12-6c.84-1.41 2.11-2.55 2.82-4 .81-1.7.24-3.23-.19-4.94a11.06 11.06 0 01-.08-5 12.39 12.39 0 015.53-7.93 10.51 10.51 0 012.26-1c.15-.05.09-.29-.06-.24zM359.65 768.32a3 3 0 013-1 4 4 0 012.65 2 10.49 10.49 0 01.83 7.33 18 18 0 01-1.28 3.56c-.23.55-.46 1.37.14 1.77a3 3 0 001.27.21 3.25 3.25 0 011.52.66 4.8 4.8 0 011.65 2.61c.75 2.8-1 5.53-2.43 7.8a.13.13 0 00.11.19 5 5 0 014.35 2.36 7.72 7.72 0 011.16 5.26 26.35 26.35 0 01-1.66 6.08l-2.23 6.26c-.05.16.19.22.24.07.83-2.32 1.65-4.63 2.47-7a19.85 19.85 0 001.49-6.61c0-3.2-2.22-7-5.82-6.72l.11.18c1.34-2.12 2.91-4.58 2.6-7.21-.21-1.84-1.43-3.81-3.35-4.2-.65-.13-1.63.05-1.61-.88a5.65 5.65 0 01.73-1.87 13.06 13.06 0 001-3.94c.22-2.3-.05-5.06-1.65-6.87-1.37-1.56-4.12-2-5.48-.17-.09.13.12.25.22.12zM401.46 815c1.3-3.25-.22-7.42 2.26-10.24a4 4 0 012.3-1.25 7.16 7.16 0 002.22-.64 3.54 3.54 0 001.44-3.42c-.14-1.87-1.1-3.6-.82-5.51a6.33 6.33 0 012.66-4.24 6 6 0 012.36-1 6.11 6.11 0 002.37-.76 5.41 5.41 0 002.07-3.82c.47-3.5-1.37-7.69.92-10.82a4.61 4.61 0 014.8-1.6 6.69 6.69 0 014.15 3.13c2.06 3.26 2.37 7.64 1.73 11.36a18.44 18.44 0 01-.7 2.82 11.69 11.69 0 00-.76 2.37 1.35 1.35 0 00.57 1.37c.65.39 1.47.29 2.13.68a4.65 4.65 0 011.88 4c0 1.93-.78 3.77-1.09 5.65a11.15 11.15 0 00.46 4.83 19.11 19.11 0 011.11 4.94 4.69 4.69 0 01-.64 2.46c-.08.14.14.27.22.13 1.74-3-.39-6.45-.9-9.49-.35-2.1.29-4 .76-6.07a7.87 7.87 0 000-4.56 3.64 3.64 0 00-2.61-2.45c-.53-.11-1.13-.14-1.44-.65a1.79 1.79 0 010-1.55c.31-.92.68-1.81.92-2.76a18.62 18.62 0 00-.51-11.41c-1.17-2.92-3.72-5.52-7.11-5.13s-4.47 3.88-4.35 6.87c.09 2.17.6 4.39.11 6.55a5.18 5.18 0 01-1.29 2.5 4.68 4.68 0 01-2.74 1.17 6.49 6.49 0 00-5.36 6.5c.09 1.93 1.18 3.77.81 5.73a2.74 2.74 0 01-1.82 2.19c-.83.28-1.71.31-2.53.62-3.25 1.28-3 5.5-3.18 8.33a9.6 9.6 0 01-.62 3.08c-.06.15.18.21.24.06zM446.47 813c-.2-2.92-.41-6.07 1-8.74a6.83 6.83 0 012.68-2.83c1.09-.59 2.33-.53 3.44-1s1.39-1.54 1.8-2.55a13.62 13.62 0 012-3.58c1.51-1.82 4.56-3.1 6.61-1.3s.75 5.24 2.18 7.48a.12.12 0 00.17 0c1.51-1.13 3.23-2.44 5.2-2.46a3.36 3.36 0 013.64 3 15.29 15.29 0 00.13 2.62 11.84 11.84 0 001 2.36 8.13 8.13 0 01.91 2.67 3.67 3.67 0 01-.1 1.36 2.79 2.79 0 01-.26.59 2.07 2.07 0 01-.28.38.5.5 0 01-.47-.6.13.13 0 00-.25 0 .94.94 0 00.65.93.11.11 0 00.12 0c1.28-1.25.91-3.19.26-4.66a15.55 15.55 0 01-1.35-3.27c-.21-1.09.11-2.24-.25-3.31a3.74 3.74 0 00-3.55-2.27c-2.09-.06-3.91 1.31-5.5 2.5h.18c-1.39-2.16-.19-5.16-1.89-7.19-1.41-1.68-4.12-1.52-5.82-.39a8.29 8.29 0 00-2.52 2.9 18.74 18.74 0 00-.84 1.75 12.11 12.11 0 01-.85 2c-.85 1.33-2.66 1.08-4 1.64a6.5 6.5 0 00-2.66 2.21c-2.05 2.84-1.86 6.49-1.63 9.81 0 .16.26.16.25 0zM477.85 751.41q-1.59 1.8-3.2 3.59a17.64 17.64 0 00-2.43 3.15 5.66 5.66 0 00-.72 3.41 5 5 0 001.75 2.91 4.44 4.44 0 011.25 1.75 4.64 4.64 0 01.08 2.31 32 32 0 01-1.43 4 5.81 5.81 0 001.4 6.21 7 7 0 003.5 1.6 9.37 9.37 0 014.46 2.19c.11.11.29-.06.17-.17a8.32 8.32 0 00-2.9-1.8 29.81 29.81 0 01-3.94-1.19 5.48 5.48 0 01-2.55-6.46c.66-2.2 2.34-4.56 1.38-6.94-.43-1.07-1.41-1.71-2.12-2.57a4.18 4.18 0 01-.59-4 11.57 11.57 0 012.7-4l3.37-3.77c.11-.12-.07-.3-.18-.18zM421.62 568.2c-2.25-3.37-5.28-6.28-6.75-10.12-.68-1.78-1.27-4.31-.33-6.09.8-1.53 2.79-1.93 4.34-1.54 2.09.52 3.59 2.34 4.91 3.92a.12.12 0 00.21-.09 4.11 4.11 0 011.73-3.28 8.3 8.3 0 013.06-1.85 3.2 3.2 0 013.43.89 5.87 5.87 0 011.24 3.17c.61 5.08-2.9 9.85-5.85 13.63-.87 1.11-1.77 2.19-2.72 3.24a2.65 2.65 0 01-.77.72c-.63.29-1-.34-1.26-.79l-1.27-2c-.09-.14-.31 0-.22.12l1.28 2c.23.37.49.92 1 1s.86-.26 1.15-.57c.58-.61 1.12-1.26 1.66-1.9a46.06 46.06 0 005.36-7.57 13.5 13.5 0 001.9-8.14c-.31-2.19-1.66-4.54-4.2-4.24a7.43 7.43 0 00-3.78 1.94 4.5 4.5 0 00-1.95 3.59l.21-.09c-1.24-1.49-2.59-3.1-4.47-3.81a4.57 4.57 0 00-4.35.51c-1.47 1.15-1.43 3.32-1.14 5a15.7 15.7 0 002.62 6c1.5 2.21 3.3 4.21 4.79 6.43.09.14.3 0 .21-.12zM468.46 576.76l1.1-6.41c.11-.63-.85-.9-1-.27l-1.1 6.41c-.11.63.85.9 1 .27z"/><path d="M445.9 594.81s-27.47 13.11-40.46 14.11l-6.95-12.73-2.56-4.25s-1.32-.86 1.06-1.1 24.86 1 32.76.28l13.67-.36s1.84-.3 2 .9M388.16 624.47c0-.09 8.9-.84 8.22-1.37s-4.58-3.71-4.58-3.71-1.82-2.26-2.31.84M447.75 558s5.87 7.64 2.28 21.9l-1.68-3.55s-1.66-1.63-1-5.39.4-12.96.4-12.96zM397.24 558s4.76 15.13-2.54 24.26c0 0-.74-4.71-1-5.59s-1.31-3.45-.63-5.56zM366.93 830.09s21.83 4.09 28.52 3.54l2.24-11.15.78-3.84s1.6-2.38-1.8-2.07-21.76-2.39-23.21-3.16a5.67 5.67 0 00-3-.59s-1.57-.28-1.56 2.62M451.63 834.39s22.57-.39 25.76-4.39l-.39-15.33s1.46-3.78-2.64-2.88-22.76 3.71-22.76 3.71-3.67-1.52-2.91 2.69M601.57 486.05s-15.27 13.06-21.78 5.32 13.3-21.61 27.52-10.53c0 0 4.93 1.22 6.23 7.66s-3.18 16.13-3.67 18.82-2.22 4.3-2.36 4.06.2-5.14.2-5.14-.59-3 .67-3.06 4.7-5 3.13-7.69-4 .82-4 .82-.43 3.49-1.57 2.52-.46-2.51-1-3.74-4.56-2.28-3.42-6.59.05-2.45.05-2.45z"/><path d="M581.45 491.56s0 5.15 2.16 8.28l.61-8.93"/><g fill="none" stroke="#000" stroke-miterlimit="10"><path d="M589.41 526.46s-25.19-1.08-28 11.51-5.71 39.46-5.71 39.46-10-1.61-18-2.47-21.58-3.33-23.53-4.74c0 0-2.2-1.18-2.75-.75M504.82 579s-1 2.87 2.61 3.85 43.49 20.7 54.89 17c4.27-1.4 6.67-4.76 8.19-7.54"/><path d="M569.77 553.93a3.76 3.76 0 01.69 1.19c1.67 3.62 1.3 19.27 1.13 23.26-.23 5.44-.75 13.61-1.88 18.65-.4 1.79.92 3.2 2.66 3.75 12.92 4.08 40.32 2.29 57.89.17a2.88 2.88 0 002.67-3.19c-1.09-5.15-1.27-5.51-1.07-16.6"/></g><path d="M507.48 580.26a14 14 0 001.53-2.21c.49-.81 1-1.63 1.39-2.49a10.33 10.33 0 001.2-5.39c-.05-.64-1.05-.64-1 0a9.48 9.48 0 01-1.14 5.05c-.37.74-.79 1.46-1.22 2.17a13.35 13.35 0 01-1.47 2.17c-.43.47.27 1.18.71.7z"/><path d="M608.86 526.84s28-3 34.09 12.65 19.39 50.06 16.13 63.74-25.94 36.26-25.94 36.26-9.41-.67-11.36-8.24c0 0 8.06-14.74 11.2-23.46a64.72 64.72 0 014.51-10.33 2.68 2.68 0 00.19-2.34c-1.71-4.41-7.5-19-10.8-23.24" fill="none" stroke="#000" stroke-miterlimit="10"/><path d="M584.64 526.31c-1.07 6.12 3.17 11.85 8.64 14.19a16.51 16.51 0 009.05 1.13 13 13 0 008.16-4.76 16.89 16.89 0 003.74-9.65c0-.64-1-.64-1 0-.34 5.85-4.13 11.8-10 13.22a15.07 15.07 0 01-15.26-5.29 11.25 11.25 0 01-2.33-8.57c.11-.63-.85-.9-1-.27z"/><g fill="none" stroke="#000" stroke-miterlimit="10"><path d="M630.26 601a30.08 30.08 0 001 7.84c.19.67.37 1.37.52 2M575.13 601.52v.52a30 30 0 01-.88 7.78c-3.77 15.35-18.57 81.71-13.44 157.14 5.12 75.21 11.23 106.73 12.7 113.52a2.53 2.53 0 01-.81 2.46l-4.81 4.19a2.55 2.55 0 001.68 4.47h71.47a2.55 2.55 0 002.55-2.52c.11-11.77.55-61.91 0-89.39-.27-13-1.33-25.28-2.48-35.12a197.44 197.44 0 010-45.65c2.56-22 4.85-56.48-.5-87.39"/><path d="M586.92 646s7.38 6.16 7 13.15-4.75 103 0 149.46c3.73 36.34 5.6 60.69 6.24 69.58a8 8 0 01-2.47 6.35l-2.74 2.6a2.6 2.6 0 001.79 4.48h4.87"/></g><path d="M576.41 601.79s41.81 13.9 53.85 12.56l.77-1.74a3.38 3.38 0 00.26-3.82c-1.15-2.3 0-6.45-1-7.84-.93-1.22-20.57 4.92-53.88.84zM619.69 626.61a29.67 29.67 0 001.65 5.44 9.55 9.55 0 002.85 4.17c.49.4 1.2-.3.7-.71a9 9 0 01-2.71-4.06 30.51 30.51 0 01-1.53-5.1c-.11-.64-1.07-.37-1 .26zM637.34 639.89a1.58 1.58 0 01-1-.09 7.25 7.25 0 00-1.14-.26 12.72 12.72 0 01-2.27-.47c-.62-.19-.88.78-.27 1a15.4 15.4 0 002.52.5c.81.11 1.57.59 2.4.31.61-.2.35-1.16-.26-1zM572.89 879.79q13.05 1.15 26.08 2.42c.16 0 .16-.24 0-.25q-13-1.26-26.08-2.42c-.16 0-.16.23 0 .25zM601.1 879.41a313.08 313.08 0 0032.23 2.59c3 .08 6.09.12 9.13.11a.13.13 0 000-.25 311 311 0 01-32.29-1.6c-3-.31-6.06-.66-9.07-1.06-.16 0-.16.23 0 .25zM570 743.12a12.49 12.49 0 013.84-1c.16 0 .16-.27 0-.25a13.2 13.2 0 00-4 1c-.15.06 0 .28.12.22zM569.71 748.65a7.83 7.83 0 013.2-.65.13.13 0 000-.25 8 8 0 00-3.32.68c-.15.07 0 .28.12.22zM576.45 747.71l1.3.33a.13.13 0 00.07-.24l-1.3-.33c-.16 0-.23.2-.07.24zM610.7 743.78a9.73 9.73 0 014.53.64c.15.06.21-.18.06-.24a9.84 9.84 0 00-4.59-.65c-.16 0-.16.26 0 .25zM610.08 750l4.55-.69c.16 0 .09-.26-.06-.24l-4.56.69c-.16 0-.09.27.07.24zM622.19 750.3l1.29-1a.13.13 0 00-.12-.22l-1.3 1a.12.12 0 00.13.21zM602.72 579.48c-3.74-.43-7.05 1.81-10.59 2.58a6.79 6.79 0 01-5.49-.84 6.21 6.21 0 01-2.56-5.36 7 7 0 013.1-5.27c1.29-.86 3-1.54 3.68-3 .86-1.76-.15-3.61-.81-5.25a6.77 6.77 0 010-5.59 6.36 6.36 0 014.15-3.54 6.8 6.8 0 015.23.95 6.29 6.29 0 011.92 2 13.34 13.34 0 001.29 1.94 2.14 2.14 0 001.62.83c.86 0 1.48-.76 2.21-1.14a5.88 5.88 0 015.53.21 5.69 5.69 0 011.76 7.74 27.51 27.51 0 00-1.59 2.29 2.16 2.16 0 00-.13 1.93 4.51 4.51 0 001.7 1.6c1.74 1.24 3.06 3.48 2.37 5.65a4.08 4.08 0 01-1.88 2.3 3.17 3.17 0 01-1.48.39 4.35 4.35 0 00-1.44 0 2.28 2.28 0 00-1.23 1.46 5 5 0 01-1.77 2.48 3 3 0 01-3.06.2 2.71 2.71 0 01-1.38-2.55c0-.58-.07-1.2-.65-1.48-.15-.07-.28.15-.13.22.83.39.42 1.86.73 2.6a3 3 0 001.65 1.59 3.61 3.61 0 004.31-1.78c.47-.8.64-2.25 1.67-2.53a11.63 11.63 0 011.67 0 3.56 3.56 0 001.24-.41 4.3 4.3 0 002.13-4.38c-.3-2-1.66-3.28-3.21-4.41a2.6 2.6 0 01-1.1-1.31 2.23 2.23 0 01.38-1.78c.52-.87 1.27-1.59 1.71-2.51a5.87 5.87 0 00-3.88-8.23 6.23 6.23 0 00-2.58 0 6.77 6.77 0 00-2.53 1.19c-2.18 1.48-3.15-1.5-4.2-2.85a6.79 6.79 0 00-9.3-1.28 7.07 7.07 0 00-2.56 4.35 6.39 6.39 0 00.07 2.54 29.7 29.7 0 001.18 3.14 4.12 4.12 0 01.06 3.48 5.85 5.85 0 01-2.18 1.95 9 9 0 00-4 4 6.43 6.43 0 004 8.75c3.87 1 7.61-1.63 11.28-2.42a9.3 9.3 0 013-.17c.16 0 .16-.23 0-.25z"/><path d="M588.67 575.79c.75-1.61 2.58-2.13 4-3a5.76 5.76 0 002.7-3.65 7.82 7.82 0 00-.59-5c-.71-1.7-1.71-4-.15-5.57a2.1 2.1 0 012.93.1 8.26 8.26 0 011.72 2.59 5 5 0 003.59 2.89 4.68 4.68 0 002.26-.13 4.14 4.14 0 001-.43c.48-.29 1-.77 1.59-.65 1.24.24 1.12 1.85.78 2.72a8.29 8.29 0 00-.88 2.81 4.39 4.39 0 00.85 2.62 9.24 9.24 0 011.67 2.54c.65 2.28-3.41 2.48-2.71 4.75l.12-.16c-2.08.09-2-2.95-3.22-4s-3-.59-4.3.12c-.86.47-1.68 1-2.56 1.46a19.74 19.74 0 01-6 1.92 2.9 2.9 0 01-1.86-.15 1.09 1.09 0 01-.5-1.5.12.12 0 00-.21-.13 1.29 1.29 0 00.3 1.65 2.83 2.83 0 002.34.37 19.88 19.88 0 006.37-2.09c1.78-.94 4.87-3.46 6.61-1.09.89 1.21 1 3.8 3 3.71a.12.12 0 00.12-.15c-.39-1.27 1.11-1.94 1.9-2.58a2 2 0 00.87-1.92 4.68 4.68 0 00-1.1-2 5.51 5.51 0 01-1.46-2.94c-.09-1.25.55-2.21.94-3.34a2.49 2.49 0 00-.12-2.15 1.32 1.32 0 00-1.5-.66 4.32 4.32 0 00-1.12.6 4.34 4.34 0 01-1.39.57 4.64 4.64 0 01-3-.39 5 5 0 01-2.13-2.27c-.76-1.43-1.68-3.51-3.61-3.48-1.54 0-2.35 1.62-2.38 3-.06 2 1.39 3.75 1.69 5.72a5.91 5.91 0 01-2.41 5.91c-1.51 1-3.55 1.47-4.37 3.23-.07.15.15.27.21.13z"/><path d="M598.67 567a1.88 1.88 0 01.35 2.36 4.67 4.67 0 01-.76 1.06 3.14 3.14 0 00-.67.83c-.25.68.58.86 1.07.91a4.08 4.08 0 002.33-.64c1.24-.62 3.45-.13 4.07-1.72a.94.94 0 00-.61-1.35 7.87 7.87 0 00-1.19 0c-.47 0-1.2.17-1.4-.4a2.32 2.32 0 00-.43-.86 1.78 1.78 0 00-.69-.46 1.76 1.76 0 00-1.74.23c-.13.1 0 .28.17.18a1.55 1.55 0 011.67-.09 1.47 1.47 0 01.6.56 7.18 7.18 0 00.32.81c.33.45 1.11.29 1.58.28a2.72 2.72 0 011.27.09c.44.27.32.87 0 1.22a2.76 2.76 0 01-2 .85 5.47 5.47 0 00-1.91.51 3.48 3.48 0 01-2.37.51c-.24-.05-.39-.07-.49-.32s-.06-.25.07-.43a2.85 2.85 0 01.23-.26 8 8 0 00.66-.76c.72-1 1.07-2.49-.06-3.32-.13-.09-.25.12-.12.22zM571.43 560.42s-8.73 20.23-3.08 34.13c0 0 2.23-.85 2.66-6.94s.42-27.19.42-27.19zM628.06 573.64s-1.06 8.36 3.69 14.61l.06-4.73a4.79 4.79 0 00-1.55-4.64M639.33 594.64a8.89 8.89 0 00-2.47 3.23.5.5 0 00.18.68.49.49 0 00.68-.18 8.67 8.67 0 011-1.68c0-.07 0 0 0 0a.76.76 0 01.08-.11l.15-.18.33-.36a9.33 9.33 0 01.73-.68.48.48 0 000-.7.5.5 0 00-.7 0zM591.75 762s-1.25 48.94 0 80.22 2 38.22-.56 41-5.14 5.29-4.27 8.29h9.78s-4.53-1.89-1.79-4.48 5.22-4.93 5.18-7.46-2.86-39-3.18-40.88-3.59-37.47-3.59-37.47"/><rect fill="#ffa766" height="36.56" rx="2.43" transform="rotate(30 339.16 429.562)" width="36.56" x="320.88" y="411.28"/><path d="M673 404.38l-44.74-1.76a2.59 2.59 0 00-2.4 3.79L646.72 446a2.59 2.59 0 004.48.18l23.9-37.88a2.59 2.59 0 00-2.1-3.92z" fill="#8f8fef"/><path d="M437.33 336.41v-17.22a3.22 3.22 0 00-1.62-2.79l-14.91-8.62a3.26 3.26 0 00-3.23 0l-14.91 8.62a3.21 3.21 0 00-1.61 2.79v17.22a3.21 3.21 0 001.61 2.79l14.91 8.61a3.22 3.22 0 003.23 0l14.91-8.61a3.22 3.22 0 001.62-2.79z" fill="#60d8d2"/><path d="M266.65 384.63v336.21a.13.13 0 10.25 0V384.63a.13.13 0 00-.25 0zM215.83 562.51v58.64a.13.13 0 00.25 0v-58.64a.13.13 0 00-.25 0zM233.42 679.79v39.1a.13.13 0 00.25 0v-39.1a.13.13 0 00-.25 0zM266.65 789.26v23.46a.13.13 0 00.25 0v-23.46a.13.13 0 00-.25 0zM733.84 382.67v381.18a.13.13 0 00.25 0V382.67a.13.13 0 00-.25 0zM774.89 640.7v66.46a.13.13 0 00.25 0V640.7a.13.13 0 00-.25 0zM735.79 806.85v31.28a.13.13 0 00.25 0v-31.28a.13.13 0 00-.25 0zM772.93 779.49v29.32a.13.13 0 00.25 0v-29.32a.13.13 0 00-.25 0zM815.93 687.61v31.28a.13.13 0 00.25 0v-31.28a.13.13 0 00-.25 0zM186.51 715v35.19a.13.13 0 00.25 0V715a.13.13 0 00-.25 0z"/></svg>