<svg viewBox="0 0 1000 1000" width="1000" height="1000" xmlns="http://www.w3.org/2000/svg"><path d="M693.33 849.54v-18.28a3.7 3.7 0 00-1.85-3.21l-15.83-9.14a3.74 3.74 0 00-3.72 0l-15.83 9.14a3.71 3.71 0 00-1.86 3.21v18.28a3.71 3.71 0 001.86 3.22l15.83 9.14a3.74 3.74 0 003.72 0l15.83-9.14a3.7 3.7 0 001.85-3.22z" fill="#8f8fef"/><path d="M247.14 653.64h108.74v8.08H247.14z"/><path d="M227.23 646.88l-1.79 6.76h47.63l2.09-6.76z" fill="#ccc"/><path d="M355.88 596.38H290.8l-15.64 50.5h65.08z" fill="#e9e9e9"/><path d="M275.16 646.88l-2.09 6.76h62.82a3.06 3.06 0 002.92-2.16l1.43-4.6z" fill="#f4f4f4"/><g fill="none" stroke="#000" stroke-miterlimit="10"><path d="M227.23 646.88l-1.79 6.76h47.63l2.09-6.76zM355.88 596.38H290.8l-15.64 50.5h65.08z"/><path d="M275.16 646.88l-2.09 6.76h62.82a3.06 3.06 0 002.92-2.16l1.43-4.6z"/></g><path d="M222.72 648.46a9.38 9.38 0 005.06-3.75c2.38-3.22 12.32-1.4 12.32-1.4s3.19.5 3.51 1.62-3.36 4.57-4.81 5.36a31.88 31.88 0 01-4.62 1.83c-.82.27-1.86.67 0 1.09s13.24-2.72 13.61-2.82 5.27-1.36 6.25-2.67 1.06-4 2.6-3.9 15.2 0 14.91 1.11-.91 1.56-1.61 3.53-2.39 6.11-3.84 7.15-7.91 4.52-9.38 5.19-11.29 7.52-11.48 7.8-15.24-9.73-15.24-9.73l-6.6-4.81" fill="#fff"/><path d="M171.1 709.55s-5.1 47.9 65.51 49l-54.35 7.88-21.86-5.83M181 597.25a27.41 27.41 0 00-1.13 3.75c-.33 1.59-.5 3.22-.67 4.83-.07.64.93.64 1 0 .17-1.55.33-3.12.65-4.65a29.12 29.12 0 011.11-3.66c.22-.61-.75-.87-1-.27z"/><path d="M178.84 596.38s-1.38 1.37 1.41 4.93c0 0 1-2.9 1-3.14s.82-1.28-1-1.3-1.41-.49-1.41-.49z"/><path d="M175.61 595.57c15.13 5.46 14.7-6.18 14.89-12v-1.14a2.34 2.34 0 001.25-2.92 21.29 21.29 0 01-.76-2.13 31.29 31.29 0 01-1.12-4.66c-.73-4.63-1.93-9.74-3.09-14.11" fill="none" stroke="#000" stroke-miterlimit="10"/><path d="M178.61 576.58c.29-.13.61.12.8.32a3.89 3.89 0 01.56.71 4.1 4.1 0 01.58 1.7c0 .16.26.16.25 0a4.5 4.5 0 00-.71-2c-.33-.48-.94-1.27-1.6-1-.15.07 0 .28.12.21z"/><path d="M179.45 578.3a.72.72 0 01.87 0 .14.14 0 00.18 0 .13.13 0 00-.05-.17 1 1 0 00-1.13 0 .13.13 0 000 .17.14.14 0 00.17 0zM163.09 589.33c-1.1 5.3-1.88 10.76-3.78 15.85-.22.6.74.86 1 .26 1.9-5.09 2.67-10.55 3.77-15.84.13-.63-.83-.9-1-.27zM186.85 574.91a2.85 2.85 0 00-.12.31 2 2 0 00-.06.34 1.82 1.82 0 000 .57.48.48 0 00.23.29.5.5 0 00.68-.18v-.11a.42.42 0 000-.27v-.06.13a1.21 1.21 0 010-.38v.14a1.56 1.56 0 01.1-.37l-.05.12a.32.32 0 00.06-.18.27.27 0 000-.2.47.47 0 00-.23-.3.5.5 0 00-.38-.05.44.44 0 00-.3.23zM185.73 583.51a3.24 3.24 0 001.56 1.62.65.65 0 00.39 0 .62.62 0 00.3-.23.52.52 0 00-.18-.69 2.4 2.4 0 01-.51-.31l.1.08a2.56 2.56 0 01-.52-.52l.08.1a2.34 2.34 0 01-.36-.61.5.5 0 00-.3-.23.55.55 0 00-.38.05.52.52 0 00-.23.3v.14a.45.45 0 00.07.25zM187.26 571.52l.17-.07h-.12a3.13 3.13 0 01.54-.19.52.52 0 00.3-.23.48.48 0 00.06-.18.45.45 0 000-.2.53.53 0 00-.23-.3.58.58 0 00-.39 0 4.39 4.39 0 00-.83.31.35.35 0 00-.14.13.46.46 0 00-.09.17.44.44 0 000 .2.55.55 0 00.06.18.5.5 0 00.3.23h.13a.48.48 0 00.26-.07z"/><path d="M181.29 574.56a.6.6 0 01-.92.53 2.45 2.45 0 00-3.11.07c-1.53 1.41-.55 3.89 1.18 5.28a2.67 2.67 0 011 2.6 27.11 27.11 0 01-5.79 11.41c-5.86 7.17 0 15.1-4.13 21.83-2.8 4.57-12 5.41-16.62 5.92-6.26.67-15 1.16-20.34-2.85-3.21-2.4-3.12-7.26-1.74-10.65 1.69-4.13 5.58-6.74 8-10.39 3.36-5.1 5.59-11 8.4-16.43 2.57-5 3.8-10.36 6.25-15.35 3.38-6.89 9.25-11.4 17.26-10.31 0 0 6-4.42 14-.51s10.59 11.56 7.16 11.81-8.79-4.16-8.79-4.16 4.35 4.57 3 5-4.67-3.42-4.67-3.42 1.72 3.89.5 6.18a6.66 6.66 0 00-.64 3.44z"/><g fill="none" stroke="#000" stroke-miterlimit="10"><path d="M173.22 605.31s17.81-1.09 23.45 11.51 12.9 39.88 12.9 39.88"/><path d="M209.15 655.2s5.55-1 7.29-1.89 4.78-5.21 9.12 9.34-1.09 19.76-5.65 19.11-33.49 14.36-39.91-27.58"/><path d="M222.91 655.61a117.33 117.33 0 0112-2.52c7.82-1.3 17.62-3.42 19.14-5.37s.65-4.89 3.25-6.41M226.45 677c.09-.27 10.73-1.81 27.41-13.84 9.4-6.78 13.26-5.61 15.38-12.68s5.21-6.09 5.21-6.09"/></g><path d="M259.47 644.08a14.87 14.87 0 014.53-4.78c.53-.36 0-1.22-.51-.86a16 16 0 00-4.84 5.13.5.5 0 00.86.51zM265.11 641.9c.19-.2.38-.39.58-.57l.31-.27.16-.13.07-.06s.1-.07 0 0a11.1 11.1 0 011.38-.88.5.5 0 00-.5-.86 10.49 10.49 0 00-2.73 2.09.5.5 0 00.71.7zM268.85 642.94l.07-.09.13-.15c.09-.11.19-.21.29-.31s.2-.2.31-.29l.15-.13.09-.07s.1-.08 0 0a6.36 6.36 0 01.69-.46l.38-.2.2-.09h.08.05a.5.5 0 10-.27-1 7.11 7.11 0 00-3.07 2.35.5.5 0 00.18.68.51.51 0 00.68-.18zM143.35 687.27c9.16.65 18.33.88 27.5.76 8.23-.11 16.45-.44 24.67-.78a16.11 16.11 0 002.07-.2 2.63 2.63 0 001.45-.56c.45-.45.32-1.27.25-1.83a12.9 12.9 0 00-.34-1.73.5.5 0 00-1 .27 11.4 11.4 0 01.28 1.29 4.49 4.49 0 01.09 1c0 .09-.06.35 0 .29s-.07 0-.12.05a12.59 12.59 0 01-3.06.4c-3.65.1-7.29.29-10.93.42-8.56.31-17.12.49-25.68.3q-7.6-.16-15.19-.71c-.64 0-.64 1 0 1z"/><path d="M147.37 616.35a33.08 33.08 0 00-4.45 14.7 68.66 68.66 0 00.83 14.53c.52 3.9.92 7.82 1.32 11.73l.6 6.08c.18 1.88.42 3.78.45 5.68.1 6-2.05 11.73-3.25 17.57-.13.63.84.9 1 .27 1.06-5.12 2.85-10.11 3.22-15.34.29-4-.37-8.17-.77-12.19s-.83-8.14-1.33-12.21a97.34 97.34 0 01-1.15-13.42 33.27 33.27 0 014.44-16.89.5.5 0 00-.87-.51z"/><g fill="none" stroke="#000" stroke-miterlimit="10" stroke-width=".25"><path d="M169.1 609.6c6.52 1 13.17.37 19.73-.27a1.67 1.67 0 00.83-.23M144.76 623.48a472.77 472.77 0 0052-3.92M144.1 641.81a241.91 241.91 0 0058.69-4.81M146.5 660.8a207 207 0 0033.7-3.19M184.3 657.54a29.81 29.81 0 009-1.11q7-1.66 13.84-3.91M147.35 679.05c4.43-.76 9-.18 13.48-.19a102.94 102.94 0 0013.33-1.17l13.65-1.8M200.53 681.94a38 38 0 0012.39-26.68"/></g><path d="M237.35 638.07a4.87 4.87 0 00-1.79 1.52.53.53 0 00-.05.39.48.48 0 00.23.29.45.45 0 00.39.05.5.5 0 00.29-.23l.08-.1-.07.1a3.91 3.91 0 01.76-.76l-.1.08a4 4 0 01.76-.47.5.5 0 00.23-.3.53.53 0 00-.05-.39.51.51 0 00-.68-.18zM240.33 638.77a4.68 4.68 0 00-1.94 1.31.49.49 0 10.7.7c.12-.12.24-.25.37-.36a1 1 0 01.19-.16h.06l.1-.07a3.78 3.78 0 01.43-.26l.23-.11h.19a.62.62 0 00.3-.23.53.53 0 000-.39.52.52 0 00-.62-.35zM233.93 637.75a15.45 15.45 0 00-4.1 3.36c-1.16 1.32-2.05 2.81-3.09 4.21a6.75 6.75 0 01-1.88 1.81 14.21 14.21 0 01-3 1.08c-2.06.63-4.15 1.19-6.24 1.69a53.15 53.15 0 01-7.39 1.29c-.64.06-.65 1.06 0 1a70.28 70.28 0 0013-2.74c1.85-.53 3.88-1 5.32-2.32a33 33 0 003.2-4.29 15.86 15.86 0 014.74-4.23.5.5 0 00-.5-.86zM244 640.06a5.21 5.21 0 00-3.56 1.89 12.85 12.85 0 00-2.09 4 .5.5 0 101 .26 11.76 11.76 0 011.78-3.47 4.31 4.31 0 012.91-1.66c.64 0 .64-1 0-1zM242.33 646.16a12.62 12.62 0 01-5 4.36 15.46 15.46 0 01-3.18 1.07 3.7 3.7 0 00-2.62 1.79c-.26.58.6 1.09.87.51.53-1.16 1.91-1.28 3-1.57a13.71 13.71 0 003-1.24 13.87 13.87 0 004.73-4.41c.35-.54-.51-1-.87-.51z"/><path d="M194.34 686.77l.74 3.82a5.9 5.9 0 003.79 4.45c14.13 5.07 71.13 15.83 85.33 40.34 15.27 26.25-12.34 131.67-16.1 145.66a2.25 2.25 0 00.79 2.36l5.37 4.18a2.24 2.24 0 01-1.38 4h-29.64a1.56 1.56 0 01-1.54-1.84c1.71-9.42 7.4-46.38 5-77.31-2.45-32.43 5.3-48.84 5.3-48.84-15.32-1.57-30.25-1.59-46.1-1.88-15.48-.28-31.38-.78-46.56-4-7.49-1.6-15-4.54-19.47-11.14-4.9-7.29-5.71-17.52-4.71-26a65.61 65.61 0 014.31-16.46c2.06-5.18 5.37-10.07 6.74-15.49a12 12 0 00.33-1.79" fill="none" stroke="#000" stroke-miterlimit="10"/><path d="M170.55 752.89V641a5.7 5.7 0 00-5.7-5.7h-50.24a5.7 5.7 0 00-5.7 5.7v121a8 8 0 008 8h119.7a5.7 5.7 0 005.7-5.7 5.7 5.7 0 00-5.7-5.7h-60.36a5.7 5.7 0 01-5.7-5.71z" fill="#f4f4f4"/><path d="M228.82 770c2.79 0 3.11-4.2.34-4.48a5.63 5.63 0 00-.58 0h-60.36a5.7 5.7 0 01-5.7-5.7V645.11a2.89 2.89 0 00-2.9-2.89h-46.28a4.42 4.42 0 00-4.43 4.42V762a8 8 0 008 8z" fill="#e9e9e9"/><path d="M170.55 752.89V641a5.7 5.7 0 00-5.7-5.7h-50.24a5.7 5.7 0 00-5.7 5.7v121a8 8 0 008 8h119.7a5.7 5.7 0 005.7-5.7 5.7 5.7 0 00-5.7-5.7h-60.36a5.7 5.7 0 01-5.7-5.71zM249.47 763.35s6.55.21 9.61 2.09" fill="none" stroke="#000" stroke-miterlimit="10"/><path d="M180.69 719.75a45.18 45.18 0 0010.89-17.61c0-.15-.19-.22-.24-.07a44.88 44.88 0 01-10.83 17.5.13.13 0 00.18.18z"/><path d="M184.09 715.69c-.18-.73-.34-1.46-.45-2.21a8.88 8.88 0 01-.15-1.25.51.51 0 01.29-.5 4.74 4.74 0 01.5-.26 32.49 32.49 0 014.21-1.8c.15 0 .08-.3-.07-.24a32.91 32.91 0 00-4.68 2 .79.79 0 00-.49.55 4.21 4.21 0 00.1 1.17 22.59 22.59 0 00.5 2.58c0 .16.28.09.24-.07zM244.89 871.84a200 200 0 0025.42-1.59c.16 0 .16-.27 0-.25a200 200 0 01-25.42 1.59.13.13 0 000 .25zM267.75 874.48a11.28 11.28 0 002-.09c.07 0 .13 0 .13-.12a.13.13 0 00-.13-.13 11.28 11.28 0 01-2 .09c-.16 0-.16.24 0 .25zM267.21 876.59a6.62 6.62 0 001.83-.08c.15 0 .09-.27-.07-.24a6.48 6.48 0 01-1.76.07c-.16 0-.16.24 0 .25zM266.72 878.73a7.5 7.5 0 001.83-.14c.16 0 .09-.27-.06-.24a7.55 7.55 0 01-1.77.13.13.13 0 000 .25zM181.3 660.8s-2.54 21 8 26l9.5-.79s1.58-3-1.79-3.78-14.9-10.79-15.71-21.43zM194.34 686.77s-2.88 6.63-24.16 13.26l.91-9.47s-2.45-3.61 3.09-3 20.16-.79 20.16-.79z"/><path d="M170.55 769.99V891.6h-44.03M170.55 891.6h41.2" fill="none" stroke="#000" stroke-miterlimit="10"/><path d="M153.05 769.99h35v5.81h-35zM256.54 764.39a7.81 7.81 0 01-6.59 5s.91-6.23 3.75-5.61z"/><path d="M243.8 763.35s-3.51 22-54.91 108.58a5.75 5.75 0 00-.4 5.06l2.29 5.72a3.88 3.88 0 01-5.19 5l-26.65-11.88a3.47 3.47 0 01-1.73-4.66c4-8.54 15.15-32.37 21.44-49.69 7.18-19.77 13.67-43.91 21.17-51.48" fill="none" stroke="#000" stroke-miterlimit="10"/><path d="M169.49 848a133 133 0 0124.23 15.08c.12.1.3-.08.17-.18a132.61 132.61 0 00-24.28-15.11c-.14-.07-.27.14-.12.21zM161.69 874.25a55.87 55.87 0 0125.19 14.3c.12.11.29-.07.18-.18A56.94 56.94 0 00168 876a54.52 54.52 0 00-6.23-2 .13.13 0 00-.07.24zM187 870.59l1.08 1.09c.12.11.3-.06.18-.18l-1.08-1.08c-.12-.12-.3.06-.18.17zM187.71 868.21a7.33 7.33 0 012.12 2.14c.08.14.3 0 .21-.12a7.54 7.54 0 00-2.2-2.23c-.14-.09-.26.13-.13.21zM189.61 866.62a2.26 2.26 0 001.14 1.39c.14.07.27-.15.12-.22a2 2 0 01-1-1.23.12.12 0 00-.24.06zM193.37 780.56c.1-.22 17.31-.73 30.67-1.49s14.35-.21 15.06-2 3.48-9.34 3.48-9.34 1.74-4.75.38-4.91-.54.36-.65 1.46-.62 5.28-5 5.66-28 0-28 0h-6.57a5.38 5.38 0 00-5.54 2.95M273.34 745.7a4.65 4.65 0 003.21-1.22c.11-.11-.06-.28-.18-.18a4.35 4.35 0 01-3 1.15.13.13 0 000 .25zM276 750.12l2.17-1.32c.13-.08 0-.3-.13-.22l-2.16 1.32c-.14.09 0 .3.12.22zM281.93 743.61l1.29.89a.13.13 0 00.17 0 .13.13 0 00-.05-.17l-1.29-.89a.12.12 0 10-.12.21z"/><path d="M295.39 661.72V891.6h44.85" fill="none" stroke="#000" stroke-miterlimit="10"/><path d="M467.8 653.64h108.74v8.08H467.8z"/><path d="M447.89 646.88l-1.79 6.76h47.62l2.1-6.76z" fill="#ccc"/><path d="M576.54 596.38h-65.08l-15.64 50.5h65.08z" fill="#e9e9e9"/><path d="M495.82 646.88l-2.1 6.76h62.83a3.06 3.06 0 002.92-2.16l1.43-4.6z" fill="#f4f4f4"/><g fill="none" stroke="#000" stroke-miterlimit="10"><path d="M447.89 646.88l-1.79 6.76h47.62l2.1-6.76zM576.54 596.38h-65.08l-15.64 50.5h65.08z"/><path d="M495.82 646.88l-2.1 6.76h62.83a3.06 3.06 0 002.92-2.16l1.43-4.6z"/></g><path d="M477.3 643.82c-1.55-.06-1.63 2.59-2.6 3.9s-5.89 2.57-6.26 2.67-11.75 3.25-13.6 2.82l-8.27 1.48 4.1 4.18s15 10 15.23 9.73 10-7.13 11.48-7.8 7.94-4.16 9.38-5.19 3.14-5.18 3.84-7.15 1.31-2.4 1.61-3.53-13.36-1.05-14.91-1.11z" fill="#fff"/><path d="M391.94 709.61s-5.1 47.9 65.51 49l-54.36 7.88-21.85-5.87M401.84 597.31a27.13 27.13 0 00-1.13 3.76c-.33 1.59-.49 3.21-.66 4.83-.07.64.93.63 1 0a42.81 42.81 0 01.65-4.66 27.51 27.51 0 011.1-3.66c.22-.61-.74-.87-1-.27z"/><path d="M399.67 596.44s-1.38 1.37 1.41 4.93c0 0 1-2.9 1-3.14s.82-1.28-1-1.3-1.41-.49-1.41-.49z"/><path d="M396.45 595.63c15.12 5.47 14.69-6.18 14.88-12v-1.14a2.36 2.36 0 001.25-2.92 21 21 0 01-.77-2.13 32.23 32.23 0 01-1.11-4.66c-.73-4.62-1.93-9.73-3.09-14.11" fill="none" stroke="#000" stroke-miterlimit="10"/><path d="M399.45 576.65c.29-.14.6.11.8.31a3.46 3.46 0 01.55.71 4 4 0 01.58 1.7c0 .16.27.16.25 0a4.27 4.27 0 00-.71-2c-.32-.48-.94-1.26-1.6-1-.15.07 0 .28.13.22z"/><path d="M400.28 578.36a.73.73 0 01.88 0 .12.12 0 00.17 0 .13.13 0 000-.17 1 1 0 00-1.13 0 .13.13 0 00-.05.17.12.12 0 00.17.05zM383.92 589.39c-1.1 5.3-1.87 10.76-3.77 15.85-.23.6.74.86 1 .26 1.9-5.09 2.68-10.55 3.77-15.84.13-.63-.83-.9-1-.27zM407.69 575a1.69 1.69 0 00-.13.31c0 .11 0 .23-.06.34a2.18 2.18 0 000 .57.52.52 0 00.23.3.59.59 0 00.39 0 .57.57 0 00.3-.23l.05-.12a.62.62 0 000-.27v.1a2.54 2.54 0 010-.39v.14a1.2 1.2 0 01.1-.37v.12a.43.43 0 00.06-.18.44.44 0 000-.2.5.5 0 00-.23-.3.53.53 0 00-.39 0 .48.48 0 00-.29.23zM406.56 583.57a3.26 3.26 0 001.57 1.62.61.61 0 00.38 0 .53.53 0 00.3-.23.51.51 0 00-.18-.69 2.67 2.67 0 01-.51-.31l.1.08a2.84 2.84 0 01-.52-.52l.08.11a3.1 3.1 0 01-.35-.61.51.51 0 00-.69-.18.48.48 0 00-.23.29v.14a.55.55 0 00.07.25zM408.09 571.58l.17-.07h-.12a2.85 2.85 0 01.54-.18.58.58 0 00.3-.23.33.33 0 00.02-.1.34.34 0 000-.2.5.5 0 00-.23-.3.56.56 0 00-.38-.05 4.57 4.57 0 00-.83.31.29.29 0 00-.14.13.28.28 0 00-.09.17.34.34 0 000 .2.28.28 0 00.06.18.46.46 0 00.3.23h.13a.45.45 0 00.25-.07z"/><g fill="none" stroke="#000" stroke-miterlimit="10"><path d="M394.05 605.37s25.37 1.66 31 14.26 5.34 37.13 5.34 37.13"/><path d="M430.41 655.41s8.65-1.17 10.59-1.27c2.83-.14 6.17-1.88 8.59 8.56 3.44 14.79-1.46 16.46-8.06 17.92-4.5 1-34.28 15.56-40.7-26.38"/><path d="M446 654.79l9.78-1.64c7.82-1.3 17.62-3.42 19.14-5.37a7.5 7.5 0 001.13-3 4.7 4.7 0 012.13-3.41M449.07 677c.09-.27 8.94-1.81 25.62-13.84 9.41-6.78 13.27-5.61 15.38-12.68s5.22-6.09 5.22-6.09"/></g><path d="M480.31 644.14a14.94 14.94 0 014.48-4.78c.53-.36 0-1.22-.5-.86a16 16 0 00-4.85 5.13.5.5 0 00.87.51zM485.94 642c.19-.19.38-.39.59-.57l.3-.27.17-.16.07-.06a11.54 11.54 0 011.38-.88.49.49 0 00.17-.68.5.5 0 00-.68-.18 10.45 10.45 0 00-2.72 2.09.49.49 0 00.7.7zM489.68 643c.06-.07 0 0 0 0l.07-.09.13-.15.29-.31.31-.29.16-.13a.27.27 0 01.08-.07s.1-.08 0 0a8.27 8.27 0 01.69-.46l.37-.2.2-.09h.09c-.1 0 0 0 0 0a.52.52 0 00.35-.62.51.51 0 00-.61-.35 7.08 7.08 0 00-3.08 2.35.49.49 0 00.18.68.5.5 0 00.68-.18zM364.19 687.33c9.15.66 18.32.88 27.5.76 8.22-.11 16.44-.44 24.66-.78a15.94 15.94 0 002.07-.2 2.66 2.66 0 001.46-.56c.45-.45.32-1.27.25-1.83a12.93 12.93 0 00-.35-1.73.5.5 0 00-1 .27c.11.43.21.86.28 1.29a6 6 0 01.09 1c0 .09-.06.35 0 .29s-.08 0-.13 0a12.53 12.53 0 01-3.06.4c-3.64.1-7.29.29-10.93.42-8.55.31-17.12.49-25.68.3-5.06-.11-10.13-.35-15.18-.71-.65 0-.64 1 0 1z"/><path d="M415.18 686.83l.73 3.82a5.9 5.9 0 003.8 4.45c14.07 5.07 71.08 15.84 85.33 40.34 15.39 26.47-12.8 133.39-16.19 146a1.76 1.76 0 00.61 1.84l6.79 5.27a1.75 1.75 0 01-1.08 3.13h-35.61a1.74 1.74 0 01-1.72-2c1.8-10.05 7.87-49 8.91-79.55 1.11-32.56 6-46.41 6-46.41-15.32-1.57-30.24-1.59-46.09-1.88-15.48-.28-31.38-.78-46.56-4-7.49-1.6-15-4.54-19.47-11.14-4.91-7.28-5.72-17.52-4.72-26a66.17 66.17 0 014.32-16.46c2.05-5.18 5.37-10.07 6.73-15.49a13.46 13.46 0 00.34-1.79" fill="none" stroke="#000" stroke-miterlimit="10"/><path d="M391.39 753V641.09a5.7 5.7 0 00-5.7-5.7h-50.24a5.7 5.7 0 00-5.7 5.7v121a8 8 0 008 8h119.7a5.71 5.71 0 005.7-5.71 5.7 5.7 0 00-5.7-5.7h-60.36a5.7 5.7 0 01-5.7-5.68z" fill="#f4f4f4"/><path d="M449.65 770.06c2.79 0 3.12-4.21.34-4.49a5.49 5.49 0 00-.58 0h-60.36a5.7 5.7 0 01-5.7-5.7v-114.7a2.89 2.89 0 00-2.9-2.89h-46.28a4.42 4.42 0 00-4.42 4.42v115.37a8 8 0 008 8h111.9z" fill="#e9e9e9"/><path d="M391.39 753V641.09a5.7 5.7 0 00-5.7-5.7h-50.24a5.7 5.7 0 00-5.7 5.7v121a8 8 0 008 8h119.7a5.71 5.71 0 005.7-5.71 5.7 5.7 0 00-5.7-5.7h-60.36a5.7 5.7 0 01-5.7-5.68zM470.31 763.41s6.55.21 9.6 2.09" fill="none" stroke="#000" stroke-miterlimit="10"/><path d="M402.14 660.86s-2.55 21 8 26l9.51-.78s1.57-3-1.8-3.79-14.85-10.78-15.71-21.43zM415.18 686.83s-2.88 6.63-24.17 13.26l.92-9.47s-2.45-3.61 3.09-3 20.16-.79 20.16-.79z"/><path d="M391.39 770.06v121.6h-44.04M391.39 891.66h41.2" fill="none" stroke="#000" stroke-miterlimit="10"/><path d="M373.88 770.06h35v5.81h-35zM477.38 764.45a7.81 7.81 0 01-6.59 5s.9-6.23 3.74-5.61zM494.18 745.76a4.62 4.62 0 003.2-1.22c.12-.11-.06-.28-.18-.17a4.36 4.36 0 01-3 1.14.13.13 0 000 .25zM496.88 750.18l2.16-1.32a.12.12 0 00-.13-.21l-2.16 1.35c-.13.08 0 .3.13.21zM402.32 574.79a.29.29 0 01-.51.18c-.77-1-2.18-2.57-3.41-.94-1.42 1.9-1.93 4.39-.66 6.14a2.26 2.26 0 01.45 1.8c-.59 2.9-4.27 13.09-7.46 14.41-2.82 1.16-8.07.89-8.83-1s-21.36-29.17 2-37.25c0 0 2.21-7.12 13.83-5.27 11.32 1.79 22.06 8.11 6 12.42a1.84 1.84 0 00-1.35 1.77z"/><g stroke="#000" stroke-miterlimit="10"><path d="M388.56 605.29s-17-1.07-25.44 4.52c-10 6.62-10 25.52-10 25.52M516.05 661.72V891.6h44.85" fill="none"/><path d="M460.17 769.45s4.24.46 6.56 3a11.46 11.46 0 012.4 4l1.07-4.86 1.93-6.35s.7-1.72-.33-1.79-8.78-.85-8.72 0 .9 1.64-.86 4.38a9.59 9.59 0 01-2.05 1.62z"/><path d="M509.6 761.41s36.64 83.08 44.46 106.21c0 0 10.75-1 10.43 2.93-.26 3.16-17 14.93-23.52 19.36a2.79 2.79 0 01-4-.91c-6.38-11-31.15-53.64-35.94-59.7" fill="none"/></g><path d="M411.5 701.15a82.33 82.33 0 01-8 19.29c-.08.14.14.26.22.12a82.65 82.65 0 008.06-19.35.12.12 0 00-.24-.06z"/><path d="M406.26 714.94l-.62-2.16-.32-1.1-.15-.53a1.23 1.23 0 01-.11-.68c.1-.33.55-.42.85-.52l1-.34q1.07-.33 2.13-.6a.12.12 0 00-.06-.24c-.83.21-1.65.44-2.47.7-.37.12-.75.23-1.12.37a1.06 1.06 0 00-.59.45 1.15 1.15 0 00.06.87l.37 1.28.77 2.56c0 .15.28.08.24-.07zM459.36 882.69q14.86-1.73 29.82-2.52c.16 0 .16-.26 0-.25q-14.94.8-29.82 2.52c-.16 0-.16.27 0 .25zM531.55 879.12a71.25 71.25 0 0011.35-5.61c3.48-2 7.24-4 10.11-6.9.11-.11-.07-.29-.18-.17-2.85 2.88-6.6 4.82-10.06 6.86a71.68 71.68 0 01-11.28 5.58c-.15.06-.09.3.06.24zM386.13 606.34a4 4 0 002 3.61 3.71 3.71 0 00.9.37c.42.11.86 0 1.28.15a3.6 3.6 0 011.09.73 3.3 3.3 0 001.11.51 1.87 1.87 0 001.76-.39 7.06 7.06 0 001-2c.71-1.28 3-2.21 2.3-4-.06-.15-.3-.09-.25.07.6 1.61-1.48 2.52-2.19 3.66-.33.54-.46 1.18-.81 1.71a1.8 1.8 0 01-2.4.43c-.56-.28-1-.87-1.6-1-.31-.08-.65 0-1-.09a3.18 3.18 0 01-1-.33 3.75 3.75 0 01-2-3.47c0-.16-.24-.16-.25 0zM372.09 624.54a4.24 4.24 0 01-.79-4.52 4.32 4.32 0 011.38-1.73c.58-.42 1.31-.55 1.88-1 1-.73 1.07-2.14 2-3a3.79 3.79 0 014.2-.63c1.36.74 1.18 2.29 1.27 3.61a3.81 3.81 0 00.28 1.33 3 3 0 001.19 1.18 3 3 0 01.91 2.29 6.46 6.46 0 01-.1 2.59 3 3 0 01-1.3 1.75 2 2 0 01-1.08.28 8.72 8.72 0 00-1.34-.15 4.08 4.08 0 00-1.79 1 3.18 3.18 0 01-2.56.76 1.66 1.66 0 01-1.07-.77c-.14-.25-.16-.57-.36-.78-.39-.42-2-.14-1.85-.88 0-.16-.21-.23-.24-.07-.11.49.3.79.74.87s1 0 1.3.51a3.86 3.86 0 00.45.82c1.05 1.1 2.67.51 3.72-.24a9.15 9.15 0 011.07-.78 3 3 0 011.82-.07 2.38 2.38 0 001.76-.63c1.3-1.15 1.24-3 1.05-4.57a3.22 3.22 0 00-.66-1.88c-.29-.3-.69-.46-1-.73a2.08 2.08 0 01-.59-1.11c-.28-1.27.13-2.8-.71-3.91a3.52 3.52 0 00-4-.8 4.29 4.29 0 00-1.64 1.12 11.29 11.29 0 00-1.11 2c-.56.94-1.71 1-2.53 1.7a4.42 4.42 0 00-.5 6.54c.11.12.28-.06.17-.18zM355.94 621.13a3.26 3.26 0 004.84-2.57 4.71 4.71 0 010-.92c.15-.54.67-.38 1.08-.39a1.22 1.22 0 001-.57 5.47 5.47 0 00.71-1.75 4 4 0 00.09-1.87 2.09 2.09 0 00-2.41-1.66.13.13 0 00.07.25 1.69 1.69 0 011.82.83 2.92 2.92 0 01.21 2.3 4.24 4.24 0 01-.84 1.94c-.49.49-1.09.08-1.64.32s-.4.69-.38 1.1a3.09 3.09 0 01-.54 1.91 3 3 0 01-3.92.87c-.14-.08-.27.14-.13.21zM359.48 634.67a2 2 0 01.87-1.86c.46-.29 1-.26 1.35-.71s.46-1.08.89-1.53a2.87 2.87 0 011.8-.89 2.46 2.46 0 011 .08 1.18 1.18 0 01.82.92 1.27 1.27 0 00.6.9 1.9 1.9 0 00.67 0 1.72 1.72 0 011.12.55 4.3 4.3 0 01.92 2.34c0 .16.27.09.24-.06-.27-1.46-.75-3-2.43-3.07-.34 0-.55 0-.73-.36a3.13 3.13 0 01-.19-.54 1.65 1.65 0 00-.3-.59 2.14 2.14 0 00-1.76-.47 3.21 3.21 0 00-1.69.72 5.48 5.48 0 00-1.08 1.65c-.26.44-.63.46-1 .63a2.06 2.06 0 00-.76.55 2.23 2.23 0 00-.55 1.69c0 .16.27.16.25 0zM396.17 639c-.6-1.46-1.08-3.3-.21-4.76s2.52-1.8 4-2.15l2.54-.6a6.43 6.43 0 012.82-.47 2.65 2.65 0 011.47 1.6 7.59 7.59 0 01.87 2.65 3.33 3.33 0 01-.78 2.26 1.43 1.43 0 00-.16 1.46c.31.63.91 1.09 1.28 1.69a6.22 6.22 0 01.85 2.2 5.66 5.66 0 01-.07 2.49c-.31 1.07-1.18 1.44-2.14 1.79a8.19 8.19 0 01-2.18.54 3.1 3.1 0 01-2.38-.78 1.51 1.51 0 00-1.55-.28 2.52 2.52 0 01-2.93-.49 8.15 8.15 0 01-1.62-2.35c-.47-.87-.86-2.25.28-2.8.15-.06 0-.28-.12-.21-1.6.76-.64 2.71 0 3.78.76 1.3 2 2.87 3.68 2.55.54-.1 1-.43 1.59-.29s.82.6 1.27.83a3.67 3.67 0 002.17.25 10.44 10.44 0 002.5-.75 2.57 2.57 0 001.56-1.36 6 6 0 00-.47-4.9 6.74 6.74 0 00-.62-.95c-.36-.45-1-.91-1-1.54s.44-.95.69-1.37a2.69 2.69 0 00.4-1.13 5.36 5.36 0 00-.54-2.6 6.19 6.19 0 00-1.07-1.93 1.88 1.88 0 00-1.81-.62c-1.08.19-2.15.51-3.22.76-1.78.43-4.06.71-5.26 2.26s-.73 3.64-.05 5.29c.06.15.3.08.24-.07zM408.47 609.2a7.1 7.1 0 00-1.47 2.71c-.19.7-.54 2.06 0 2.67.37.43.95.38 1 1.11a7.36 7.36 0 01-.29 1.61 3.3 3.3 0 00.56 2.44 3.64 3.64 0 004.72 1 9.23 9.23 0 002.01-1.84 1.43 1.43 0 011.8-.34 10.58 10.58 0 001.09.62c.92.37 1.5-.44 1.95-1.14a6.66 6.66 0 001-3.38.13.13 0 00-.25 0 6.29 6.29 0 01-.81 3 3.58 3.58 0 01-1 1.27c-.49.3-1-.06-1.42-.32a1.92 1.92 0 00-1.74-.41 4.3 4.3 0 00-1.56 1.38c-1.35 1.51-3.79 2-5.31.44a3.15 3.15 0 01-.82-2.8 3.41 3.41 0 00.18-2c-.13-.3-.35-.4-.6-.58a1.13 1.13 0 01-.53-1.09 5.34 5.34 0 01.1-1 6.66 6.66 0 011.54-3.19c.1-.12-.07-.3-.18-.18zM426.8 638.22a3.89 3.89 0 00-4.61 3.93 4.63 4.63 0 010 1.74c-.21.58-.83.85-1.2 1.31a3.8 3.8 0 00-.62 1.09c-.46 1.18-.83 3.49.5 4.29a1.88 1.88 0 001.93-.21 4.77 4.77 0 011.29-.66c.81-.21.83.51 1.21 1a2.11 2.11 0 002.3.6c.48-.16 1.81-.76 1.27-1.45-.09-.13-.31 0-.21.12.47.61-1.28 1.17-1.62 1.2a1.81 1.81 0 01-1.64-.75c-.19-.31-.25-.73-.59-.92a1.1 1.1 0 00-.87 0c-.79.23-1.45 1-2.3 1-1.19 0-1.46-1.41-1.42-2.32a4.67 4.67 0 011.2-3.11 5.49 5.49 0 00.83-.77 1.9 1.9 0 00.27-1.17 8.06 8.06 0 010-1.77 3.7 3.7 0 01.8-1.71 3.66 3.66 0 013.44-1.22c.15 0 .22-.22.06-.24zM428.9 637.41a.13.13 0 100-.25.13.13 0 000 .25zM404.35 661.43a2.46 2.46 0 013-.63 3.92 3.92 0 011.78 2.57 1.84 1.84 0 001.21 1.37 10.74 10.74 0 001.26.12 6.87 6.87 0 011.54.35 4.88 4.88 0 012.45 1.71 12.33 12.33 0 011.08 2.78c.43 1 1.34 2.09 1.2 3.27s-1.16 1.65-1.94 2.27a8.85 8.85 0 00-3.16 5.34c0 .15.21.22.24.06a8.91 8.91 0 011.24-3.18 10.46 10.46 0 012.56-2.58 2.84 2.84 0 001.33-2c.06-1.08-.65-2-1.08-2.95s-.58-2.21-1.25-3.15a5 5 0 00-2.08-1.62 7.82 7.82 0 00-2.66-.61 1.56 1.56 0 01-1.61-1c-.18-.43-.27-.88-.45-1.3-.84-1.88-3.44-2.77-4.87-1-.1.12.08.3.18.17zM428.27 682.3a4.93 4.93 0 011.64-6.48c.72-.46 1.79-.55 2.17-1.42s.13-1.89.7-2.78a3.29 3.29 0 012.9-1.53c.67.06.52.66.76 1.09a1.49 1.49 0 00.51.52c.58.37 1.29.46 1.88.81 1.11.67.07 1.63.32 2.56s1.2 1 1.92 1 1.57.32 1.82 1.23a4.73 4.73 0 010 1.72l.23-.07-.27-.57c-.07-.14-.29 0-.22.13l.28.57c.06.13.22 0 .23-.06a3.24 3.24 0 00-.44-2.6c-.83-.89-2.34-.22-3.13-1.11s.58-2-.29-2.82c-.53-.52-1.37-.6-2-.94a1.33 1.33 0 01-.76-1c-.1-.39-.25-.62-.66-.7a3.27 3.27 0 00-2.52.78 3.54 3.54 0 00-1.3 2.48c-.08.86-.15 1.54-1 1.91a7.08 7.08 0 00-1.52.79 5.17 5.17 0 00-1.42 6.61c.07.14.29 0 .21-.13zM433.19 655.55c0 1.62.25 3.84 2.18 4.24a2 2 0 001.1-.12c.39-.14.68-.33 1.11-.13a2.05 2.05 0 01.59.51 3.9 3.9 0 002.05 1.2 6.41 6.41 0 004.9-.76 2.52 2.52 0 00.57-.65 2.44 2.44 0 01.28-.56c.53-.54.44-.08.78-.08a.71.71 0 00.74-1c-.05-.15-.29-.09-.24.06.32.85-.6.47-1 .49a.62.62 0 00-.43.23 7.17 7.17 0 00-.45.82 2.46 2.46 0 01-.95.77 6.51 6.51 0 01-4.85.17c-.72-.3-1.08-.9-1.69-1.33s-.95-.23-1.52 0a2 2 0 01-2.43-1 5.31 5.31 0 01-.51-2.89c0-.17-.24-.17-.25 0zM391.58 667.81a3.77 3.77 0 012.68 5.58.12.12 0 000 .17 8.1 8.1 0 013.21 3c.77 1.23 1.51 3.08.93 4.51a6.7 6.7 0 00-.63 1.57 1.52 1.52 0 00.55 1.28 3 3 0 01-.05 4.08c-.11.12.06.3.18.18a3.26 3.26 0 00.7-3.39 2.94 2.94 0 00-.42-.78c-.3-.38-.73-.67-.72-1.21 0-.82.7-1.5.82-2.31a6.64 6.64 0 00-1.19-4.14 8.37 8.37 0 00-3.25-3v.17a4 4 0 00-2.83-5.94c-.16 0-.22.22-.06.24zM401.54 659.23a2.11 2.11 0 00-1.87 1.4 7.79 7.79 0 00-.63 2.94 3.19 3.19 0 001.13 2.41c.89.91 1.8 1.8 2.7 2.7a.13.13 0 00.18-.18l-2.05-2.07a4.53 4.53 0 01-1.65-2.33 6.61 6.61 0 01.35-2.71c.24-.91.8-1.91 1.87-1.91a.13.13 0 000-.25z"/><path d="M443.09 611.46s-6.74-1.26-7.78 1.77.22 6.86 0 7.89-4 11.32-6.27 14.27" fill="none" stroke="#000" stroke-miterlimit="10"/><path d="M439.38 616.15a1.14 1.14 0 001 0 8.17 8.17 0 00.79-.38 10.21 10.21 0 001.44-1 .51.51 0 000-.71.52.52 0 00-.71 0l-.14.12c.07-.06-.08.05-.09.06l-.27.2-.62.38c-.2.12-.41.23-.62.33l-.15.07h-.16c-.05 0-.05 0 0 0s-.05 0 0 0a.52.52 0 00-.69.18.51.51 0 00.18.68z"/><path d="M440.06 611.2v-1.31a2.5 2.5 0 012.5-2.5h20.13a1.07 1.07 0 011.07 1.07V629a2.08 2.08 0 01-2.07 2.08h-15.54a2.08 2.08 0 01-2.08-2.08v-10.86h-1.51a2.49 2.49 0 01-2.5-2.49" fill="none" stroke="#000" stroke-miterlimit="10"/><path d="M447.21 631l-2.5 11.58c-.41 1.91-.82 3.83-1.24 5.73a21.22 21.22 0 01-1.68 5.22c-.3.57.57 1.07.86.5a21 21 0 001.71-5.12c.44-1.94.84-3.88 1.26-5.82l2.55-11.83c.14-.62-.82-.89-1-.26zM442.5 610.78c-.28-.45.83-.44 1-.38s.22.25.22.47v4.05c0 .19.07.5-.07.64a.53.53 0 01-.42.12c-.65 0-1-.5-1.05-1.09 0-.16-.27-.09-.24.07a1.36 1.36 0 001 1.22 1 1 0 00.75 0c.32-.15.33-.39.33-.71l-.06-2.87v-1.4c0-.29 0-.59-.32-.69a1.81 1.81 0 00-1.15 0 .49.49 0 00-.25.7.12.12 0 00.21-.13z"/><path d="M674.13 606.67l-17 16.15a9.2 9.2 0 00-2.56 9l4.39 16.58a1.37 1.37 0 002.58.21l3.25-7.23a9.86 9.86 0 014-4.48l12.21-7.01" fill="#e9e9e9"/><path d="M674.13 606.67l-17 16.15a9.2 9.2 0 00-2.56 9l4.39 16.58a1.37 1.37 0 002.58.21l3.25-7.23a9.86 9.86 0 014-4.48l12.21-7.01" fill="none" stroke="#000" stroke-miterlimit="10"/><path d="M754.5 606.67l17 16.15a9.23 9.23 0 012.57 9l-4.4 16.58a1.37 1.37 0 01-2.57.21l-3.26-7.23a9.81 9.81 0 00-4-4.48l-12.19-7.05" fill="#e9e9e9"/><path d="M754.5 606.67l17 16.15a9.23 9.23 0 012.57 9l-4.4 16.58a1.37 1.37 0 01-2.57.21l-3.26-7.23a9.81 9.81 0 00-4-4.48l-12.19-7.05" fill="none" stroke="#000" stroke-miterlimit="10"/><path d="M714.32 490.45c-21.83 21.16-37.3 14-37.3 75.78 0 36.39 5.37 69.66 14.23 95.19a3.27 3.27 0 003 2.18q9.94.38 20.1.37t20.09-.37a3.26 3.26 0 003-2.18c8.87-25.53 14.23-58.8 14.23-95.19-.06-61.81-15.53-54.62-37.35-75.78z"/><path d="M716.3 356.78a2.75 2.75 0 00-4 0c-30.78 32.09-52.4 107.76-52.4 196 0 54.54 8.26 44.27 21.84 81.88q16.1.65 32.55.66t32.55-.66c13.57-37.61 21.83-27.34 21.83-81.88.03-88.24-21.59-163.91-52.37-196z" fill="#ccc"/><ellipse cx="714.32" cy="491.97" rx="27.7" ry="32.14"/><path d="M680.26 415.2h68.11c-8.63-25.26-19.6-45.42-32.08-58.42a2.72 2.72 0 00-3.95 0c-12.48 13-23.44 33.16-32.08 58.42z"/><path d="M716.3 356.78a2.75 2.75 0 00-4 0c-30.78 32.09-52.4 107.76-52.4 196 0 54.54 8.26 44.27 21.84 81.88q16.1.65 32.55.66t32.55-.66c13.57-37.61 21.83-27.34 21.83-81.88.03-88.24-21.59-163.91-52.37-196z" fill="none" stroke="#000" stroke-miterlimit="10"/><path d="M714.32 646a3.22 3.22 0 01-3.21-2.91l-3.37-33.95a3.23 3.23 0 013.22-3.54h6.72a3.22 3.22 0 013.21 3.54l-3.36 33.95a3.23 3.23 0 01-3.21 2.91z" fill="#e9e9e9"/><path d="M714.32 646a3.22 3.22 0 01-3.21-2.91l-3.37-33.95a3.23 3.23 0 013.22-3.54h6.72a3.22 3.22 0 013.21 3.54l-3.36 33.95a3.23 3.23 0 01-3.21 2.91z" fill="none" stroke="#000" stroke-miterlimit="10"/><circle cx="714.32" cy="487.53" fill="#fff" r="27.7"/><circle cx="714.32" cy="487.53" fill="#e9e9e9" r="17.6"/><circle cx="714.32" cy="487.53" fill="none" r="27.7" stroke="#000" stroke-miterlimit="10"/><path d="M729.52 708.89h81.34v6.08h-81.34z"/><g fill="none" stroke="#000" stroke-miterlimit="10"><path d="M804.77 714.97V891.6h6.08M729.52 891.6V704.72M757.89 704.72V891.6M731.77 726.77h26.12M731.77 740.56h26.12M731.77 754.35h26.12M731.77 768.14h26.12M731.77 781.94h26.12M731.77 795.73h26.12M731.77 809.52h26.12M731.77 823.31h26.12M731.77 837.1h26.12M731.77 850.9h26.12M731.77 864.69h26.12M731.77 878.48h26.12M774.36 713.52l30.41 36.81"/></g><path d="M696.61 667.58c-1.63 16.06-5.66 32.94-16.13 45.66a50.85 50.85 0 01-9.22 8.67c-3.79 2.76-7.88 5.08-11.88 7.53-7 4.28-14.24 9.29-18.06 16.83-3.49 6.92-3.25 16.49 3 21.77l.06-.21c-8.8 1.77-14.5 11.27-13.53 19.91a15.35 15.35 0 002 6.07c.08.14.36.49.33.6s-.68.15-.81.18q-1 .23-2 .54a28.64 28.64 0 00-3.58 1.36 31.52 31.52 0 00-12 9.88 30.6 30.6 0 00-5.87 14.4c-.84 6.82 1.57 13.47 1.19 20.28-.3 5.45-3.06 11.72-8.93 12.92-6.53 1.33-12.46-4.19-17.08-8s-10-7.25-16.12-7.36c-4.83-.08-10.06 2.67-12 7.26a8.94 8.94 0 00-.69 3.43.13.13 0 00.25 0c0-4.34 3.27-7.79 7.11-9.4 4.43-1.85 9.3-1 13.5 1.08s7.69 5.25 11.41 8.11c3.3 2.55 7.19 5.22 11.53 5.29a10.19 10.19 0 008.86-5.19 19.73 19.73 0 002.36-11.51c-.31-5.09-1.62-10.11-1.32-15.24a29.05 29.05 0 013.33-11.73 30.84 30.84 0 0121.22-16.12.12.12 0 00.08-.18c-4.87-7.32-2.29-17.8 4.28-23.2a15.19 15.19 0 016.63-3.17.13.13 0 00.06-.21c-6-5.05-6.46-14.19-3.26-20.93 3.75-7.9 11.27-13 18.52-17.45 4-2.44 8.08-4.77 11.85-7.55a50.2 50.2 0 008.73-8.19 64 64 0 0011-20 113.59 113.59 0 005.47-26.13c0-.16-.23-.16-.25 0zM659 704.25a71.44 71.44 0 0025.06-24.41 69.8 69.8 0 004.63-8.92c.06-.14-.15-.27-.22-.12a71.15 71.15 0 01-21.3 27.63 69.41 69.41 0 01-8.3 5.61c-.14.08 0 .29.13.21zM689.22 665.75a.13.13 0 000-.25.13.13 0 000 .25zM691.18 668.36h1a.13.13 0 100-.25h-1a.13.13 0 000 .25z"/><path d="M690.57 677.11l.65-.33a.13.13 0 000-.17.12.12 0 00-.17 0l-.65.32a.13.13 0 10.12.22zM650.15 721.1a57.27 57.27 0 0027.52-18.82c.1-.13-.07-.3-.17-.18a57.55 57.55 0 01-20.38 16 58.88 58.88 0 01-7 2.73c-.15 0-.08.29.07.24zM680.53 698l1.63-2c.1-.12-.07-.3-.18-.18l-1.62 2c-.11.12.07.3.17.18zM705.85 669.55a119.89 119.89 0 01-5.05 27.59q-1.18 3.81-2.61 7.54c-.06.15.18.21.24.06a119.18 119.18 0 006.9-27.26c.35-2.63.6-5.28.77-7.93 0-.16-.24-.16-.25 0zM692.61 716.25l1.33-1.61a.13.13 0 10-.18-.18l-1.33 1.61a.13.13 0 10.18.18zM713.21 671.17v4.56a.13.13 0 00.25 0v-4.56a.13.13 0 00-.25 0zM712.75 686.49q-1.2 15.51-3 31c0 .16.23.16.25 0q1.85-15.44 3-31c0-.16-.24-.16-.25 0zM720.81 670.51a74.46 74.46 0 001.6 16.31c0 .16.27.09.24-.06a74.52 74.52 0 01-1.59-16.25.13.13 0 00-.25 0zM724.41 693.12a.13.13 0 000-.25.13.13 0 000 .25zM724.62 694a6.11 6.11 0 011 2.57c0 .16.26.09.24-.07a6.23 6.23 0 00-1-2.62c-.09-.13-.31 0-.21.12zM728.84 668.72a107.57 107.57 0 005.16 19.07c.05.15.29.08.24-.07a107.46 107.46 0 01-5.19-19.06c0-.16-.27-.09-.24.06zM736.79 694.36l.65 1.09c.08.14.3 0 .22-.13l-.66-1.08a.12.12 0 00-.21.12zM736.41 669.34A49.76 49.76 0 00750.48 692a48.46 48.46 0 005.88 4.63c.14.09.26-.12.13-.21a49.63 49.63 0 01-17.15-20 49 49 0 01-2.69-7.13c0-.15-.29-.09-.24.07zM745.49 675.06a42.29 42.29 0 008 7.84 29.88 29.88 0 0010.25 5.36.12.12 0 00.06-.24c-3.68-.9-7.17-3.09-10.18-5.33a42.12 42.12 0 01-8-7.8c-.1-.13-.28.05-.18.17zM555.18 810.23c-.48-3.31 1.13-6.36 3.2-8.83a39 39 0 017.23-6.45 25.21 25.21 0 018.69-4.24 17.5 17.5 0 019.92.72 49 49 0 0110.18 5.49.13.13 0 00.18-.07 13.57 13.57 0 0114.94-9.33c.08 0 .19-.06.15-.16a14 14 0 012.06-14.08 14.21 14.21 0 015.52-4 19.8 19.8 0 016.83-1.15c2.51-.1 5.09-.24 7.28-1.59a.13.13 0 00-.13-.22c-2.24 1.39-4.9 1.47-7.46 1.57a18.94 18.94 0 00-6.79 1.23 14.13 14.13 0 00-8.33 10.15 14.4 14.4 0 00.78 8.21l.16-.16a13.84 13.84 0 00-15.25 9.51l.18-.08c-5.72-3.71-12.15-7.67-19.28-6.43a23.46 23.46 0 00-9.24 4.1 40.85 40.85 0 00-7.53 6.54c-2.27 2.61-4.05 5.83-3.53 9.38 0 .16.26.1.24-.06zM635.23 764.43l.65-.65a.13.13 0 000-.18.14.14 0 00-.18 0l-.65.66a.12.12 0 000 .17.13.13 0 00.18 0zM689.79 736.07c.63 8.26-4.86 15.2-10 21-4.94 5.59-10.33 11.39-11.48 19.06a15 15 0 002.23 10.93l.07-.18c-6.26 1.66-10.75 7.54-11.65 13.84a15 15 0 001.64 9.34c2 3.75 5.25 6.66 7.45 10.3s3.38 8.9.27 12.33c-.11.12.06.3.17.18 2.41-2.66 2.3-6.49 1.17-9.69-1.36-3.84-4.29-6.77-6.7-10-2.26-3-3.89-6.27-3.91-10.09a17.23 17.23 0 012.83-9.42 15.36 15.36 0 018.8-6.58.12.12 0 00.07-.18c-4.44-6.28-2.12-14.67 1.78-20.57 4.32-6.53 10.58-11.57 14.45-18.42a21.19 21.19 0 003.06-11.9c0-.16-.26-.16-.25 0zM683 853.41a.13.13 0 000-.25.13.13 0 000 .25zM692.81 848.85a.13.13 0 000-.25.13.13 0 000 .25zM773.28 749.78a57.61 57.61 0 0011.94 24q1.42 1.72 3 3.31c.53.53 1.06 1.06 1.6 1.57a8.44 8.44 0 001.5 1.31 1.2 1.2 0 001.47-.24 4.16 4.16 0 011.91-1 4 4 0 014.07 1.7c.08.14.3 0 .21-.12a4.27 4.27 0 00-5.54-1.4c-.63.36-1.2 1.24-2 .83a10.19 10.19 0 01-1.9-1.7c-1.07-1-2.1-2.11-3.09-3.22a57.86 57.86 0 01-9.73-15.33 57.17 57.17 0 01-3.2-9.79c0-.16-.27-.09-.24.06zM811.18 788.48c3.76-2.4 8.57-1.52 12.09.9 4.13 2.85 6 7.7 6.5 12.55a37 37 0 01-.37 8.92.13.13 0 00.21.13c2.54-2.06 6.12-1.34 8.57.47a21.11 21.11 0 015.88 7.67 31.84 31.84 0 012.9 9.6 27.49 27.49 0 001.1 5.23 15.22 15.22 0 001.94 3.65 36.56 36.56 0 007.15 7c.12.1.3-.08.17-.18a37.51 37.51 0 01-7-6.74 14.84 14.84 0 01-2.17-4.2 35.12 35.12 0 01-1.05-5.48 30.63 30.63 0 00-3.13-9.55 20.2 20.2 0 00-6-7.41c-2.51-1.71-6-2.22-8.55-.2l.21.12c.79-5.3.89-11-1.42-16a14 14 0 00-10.31-8 9.77 9.77 0 00-6.86 1.32c-.13.09 0 .3.13.22zM842.06 798.08c3.55 3.43 7.59 6.81 12.65 7.51a12.07 12.07 0 003.65 0 35.84 35.84 0 003.79-1.13 9.08 9.08 0 016.44.57 9.34 9.34 0 014.81 5.17c0 .08.14.14.2.06 2.55-3.2 6.17-7.33 10.78-5.82.15.05.22-.19.07-.24-4.7-1.54-8.42 2.61-11 5.88l.21.05a9.78 9.78 0 00-9-6.27c-2.57 0-4.81 1.43-7.35 1.61a14.51 14.51 0 01-7.8-1.88 33.8 33.8 0 01-7.23-5.65c-.12-.12-.3.06-.18.17zM795.69 761.16l2.89 3.29c.11.12.29-.06.18-.18l-2.9-3.29c-.1-.12-.28.06-.17.18zM809.33 770.74c1.28.87 2.81.61 4.24.32a9.47 9.47 0 014.67-.06 8.19 8.19 0 013.73 2.37 7.87 7.87 0 011.16 1.7c.35.72.47 1.5.77 2.23a1.57 1.57 0 00.88 1c.65.22 1.31-.25 2-.31a3.79 3.79 0 013.58 2.06 3.1 3.1 0 01.33 1.15 2.89 2.89 0 00.1.93.86.86 0 001 .43c.37-.06.71-.22 1.08-.28a3.27 3.27 0 011.39.07 5.4 5.4 0 012.27 1.3c3 2.65 4.29 7.14 4.21 11 0 .16.24.16.25 0a16.09 16.09 0 00-3-9.68 7.33 7.33 0 00-3.36-2.77 3.76 3.76 0 00-1.88-.17 5.2 5.2 0 01-1.21.29c-.85 0-.61-.95-.7-1.48a3.92 3.92 0 00-2.2-2.73 3.74 3.74 0 00-1.6-.39c-.78 0-1.89.71-2.52.13s-.61-1.39-.84-2.05a7.45 7.45 0 00-1-1.88 8.38 8.38 0 00-3.09-2.61 7.72 7.72 0 00-4.48-.77c-1.85.25-4 1.17-5.69 0-.14-.09-.26.13-.13.22zM842.34 797.7a.13.13 0 100-.25.13.13 0 000 .25zM848.15 785c2.94 2.18 6.73.91 10 .59a9.13 9.13 0 015 .65c1.88 1 2.53 2.91 3 4.82a.12.12 0 00.18.07c1.49-1.1 3.29-2.38 5.24-1.74a3.11 3.11 0 011.75 1.77c.23.43.53.91 1.07 1 .71.08 1.21-.55 1.67-1a7.55 7.55 0 012.47-1.54 7.88 7.88 0 015.27-.14c.15 0 .22-.19.06-.24a8 8 0 00-5 0 7.82 7.82 0 00-2.19 1.12c-.67.48-1.77 2-2.65 1.32-.56-.46-.67-1.31-1.18-1.83a3.11 3.11 0 00-1.82-.84c-1.81-.24-3.39.88-4.77 1.91l.18.07c-.46-1.67-1-3.41-2.43-4.51a7.46 7.46 0 00-4.6-1.21c-3.66 0-7.93 1.94-11.2-.48-.13-.1-.26.12-.13.21zM702.45 784.87v.65a.12.12 0 00.13.12.12.12 0 00.12-.12v-.65a.12.12 0 00-.12-.13.14.14 0 00-.13.13zM704.54 801.18l2.62-3.25c.1-.12-.08-.3-.18-.18l-2.62 3.25c-.1.12.07.3.18.18zM711.7 817.57a.13.13 0 000-.25.13.13 0 000 .25zM714.91 795.45l2 .67c.16 0 .22-.19.07-.25l-1.95-.66c-.15-.05-.22.19-.07.24zM708.44 820.83h1.31a.13.13 0 000-.25h-1.31a.13.13 0 000 .25zM661.4 844.69a10.91 10.91 0 00-3.13 6c0 .16.21.23.24.07a10.71 10.71 0 013.07-5.87c.12-.11-.06-.29-.18-.17zM772.58 813.55a10.68 10.68 0 004.42 7.85 10 10 0 004.35 1.86c2.1.33 4.26 0 6.35.44a10.16 10.16 0 015.55 3.4c.11.12.28-.06.18-.18a10.58 10.58 0 00-4-2.93 14.48 14.48 0 00-5.55-.82 11.52 11.52 0 01-5.36-1.1 10.72 10.72 0 01-3.77-3.28 10 10 0 01-1.9-5.24c0-.16-.26-.16-.25 0zM795.12 830.45l2 .65c.15.06.21-.19.06-.24l-1.95-.65c-.16-.05-.22.19-.07.24zM815.3 841h3.26a.13.13 0 000-.25h-3.26a.13.13 0 000 .25zM865.44 847.92a15.84 15.84 0 019.62 1.78c.15.08.27-.14.13-.21a16 16 0 00-9.75-1.82c-.16 0-.16.27 0 .25zM553.39 768.56c2.13.81 4.17-.63 5.53-2.16.8-.9 1.51-1.88 2.38-2.71a13.67 13.67 0 012.9-2.1 29.49 29.49 0 016.58-2.41c2.3-.6 5.1-1.6 7.25-.1a3.46 3.46 0 002.39 1 3.34 3.34 0 002-1.45c.64-.82 1.16-1.72 1.86-2.5a12.55 12.55 0 012.52-2.13 13.19 13.19 0 016.14-2.08 12.1 12.1 0 013.29.2c1.26.25 2.47.71 3.74.87 2.82.34 5-1.55 7.1-3.13l7.73-5.77c.12-.09 0-.31-.13-.21l-6.74 5c-1.06.79-2.11 1.62-3.21 2.37a7.34 7.34 0 01-3.59 1.5 12.7 12.7 0 01-4-.71 13.42 13.42 0 00-3-.43 13.27 13.27 0 00-5.69 1.19 13.09 13.09 0 00-4.74 3.6c-1.22 1.51-2.49 4.52-4.85 2.92a5.89 5.89 0 00-2.64-1.26 9.32 9.32 0 00-3.32.31 45 45 0 00-6.54 1.93 15.26 15.26 0 00-6 4c-1.7 1.93-3.85 5.13-6.88 4-.15-.06-.22.18-.07.24zM623.18 737.39l2.6-2.61c.12-.11-.06-.29-.18-.17l-2.6 2.6a.13.13 0 00.18.18zM633.59 729l2-1.29c.14-.09 0-.3-.12-.21l-2 1.29c-.14.09 0 .3.12.21zM642 724.35l2-.66c.16-.05.09-.29-.06-.24l-1.95.66c-.15.06-.09.3.06.24zM776.21 729.61a.13.13 0 000-.25.13.13 0 000 .25zM819 748.76c3.39 1.84 7.35 2.52 10.55 4.71 2.73 1.88 5.11 5.54 3.61 8.89 0 .09 0 .23.14.19a6.72 6.72 0 016.86 1.75 19.65 19.65 0 014 6.39c.07.14.29 0 .22-.13-1.13-2.45-2.33-5.06-4.47-6.82a6.81 6.81 0 00-6.67-1.43l.14.18c1.42-3.17-.48-6.63-3-8.67-3.25-2.67-7.67-3.3-11.3-5.27-.14-.08-.27.14-.13.21zM841.37 770.66a.13.13 0 000-.25.13.13 0 000 .25zM416.65 551.72l4.21-4.59c.11-.12-.07-.29-.18-.18l-4.2 4.59c-.11.12.06.3.17.18zM419.85 557.89a15.13 15.13 0 014.21-2.25c.15-.06.09-.3-.06-.24a15 15 0 00-4.27 2.28c-.13.1 0 .31.12.21zM423.1 565.45l1.3-.31a.12.12 0 00-.06-.24l-1.31.31c-.16 0-.09.28.07.24zM199.52 550.84a26.42 26.42 0 013.76-4.86c.11-.11-.07-.29-.18-.17a27.35 27.35 0 00-3.8 4.9c-.08.14.14.27.22.13zM204.23 557.79a11.05 11.05 0 013-2.66c.14-.08 0-.3-.13-.22a11.41 11.41 0 00-3 2.7c-.1.12.08.3.18.18zM207.66 565.61a16.92 16.92 0 005.24-3.49c.11-.12-.07-.29-.18-.18a16.58 16.58 0 01-5.19 3.45c-.15.07 0 .28.13.22z"/><path d="M600.43 673.811l25.618 25.619-25.619 25.618-25.618-25.618z" fill="#ff6679"/><circle cx="810.56" cy="820.28" fill="#ffa766" r="23.6"/><path d="M706.88 702.71l-23 26.36a2 2 0 001.14 3.31l34.32 6.73a2 2 0 002.3-2.64l-11.33-33.09a2 2 0 00-3.43-.67z" fill="#60d8d2"/><path d="M350.28 256.44h45a18 18 0 0118 18h-81a18 18 0 0118-18z" fill="#e9e9e9"/><path d="M332.27 274.44a18 18 0 0118-18h45a18 18 0 0118 18" fill="none" stroke="#000" stroke-miterlimit="10"/><path d="M358.77 251.24h28a2.78 2.78 0 012.78 2.78v2.41H356V254a2.78 2.78 0 012.77-2.76z"/><path d="M372.77 253.84V108.4" fill="none" stroke="#000" stroke-miterlimit="10"/><path d="M369.8 108.4h5.95v7.21h-5.95z"/><path d="M339.77 274.44L107.93 562.03M405.78 274.44l231.84 287.59" fill="none" stroke="#000" stroke-miterlimit="10" stroke-width=".25"/><path d="M781.08 517a202.78 202.78 0 013.2 37.13c0 3.5-.14 7-.34 10.49 0 .16.24.16.25 0a202.39 202.39 0 00-1.29-37.4q-.66-5.16-1.58-10.28c0-.16-.27-.09-.24.06zM795.65 535.31l1.35 11.07c0 .15.27.16.25 0l-1.39-11.07c0-.16-.27-.16-.25 0zM652.26 453.82a203.3 203.3 0 00-7.14 38.52c-.31 3.68-.53 7.36-.64 11.05 0 .16.24.16.25 0a201.88 201.88 0 015-38.79c.83-3.59 1.75-7.17 2.77-10.71 0-.15-.19-.22-.24-.07zM635.3 470.11a27 27 0 00-1.22 11.77c0 .15.27.16.25 0a26.89 26.89 0 011.22-11.71c.05-.15-.19-.22-.25-.06zM509.56 764.89s4.06 54.09-2.51 73.58c0 0-6.94-9.29-6-11.57s6.18-30.09 6.4-33.24 2.11-28.77 2.11-28.77z"/></svg>